<?xml version="1.0" encoding="utf-8"?>
<!-- Generator: Adobe Illustrator 24.0.1, SVG Export Plug-In . SVG Version: 6.00 Build 0)  -->
<svg version="1.1" id="freepik_stories-website-creator" xmlns:svgjs="http://svgjs.com/svgjs"
	 xmlns="http://www.w3.org/2000/svg" xmlns:xlink="http://www.w3.org/1999/xlink" x="0px" y="0px" viewBox="0 0 500 500"
	 style="enable-background:new 0 0 500 500;" xml:space="preserve">
<style type="text/css">
	.st0{display:none;}
	.st1{display:inline;}
	.st2{fill:#EBEBEB;}
	.st3{display:inline;fill:#EBEBEB;}
	.st4{display:inline;fill:#C53F3F;}
	.st5{display:inline;fill:#263238;}
	.st6{display:inline;fill:#455A64;}
	.st7{fill:#FFFFFF;}
	.st8{fill:#263238;}
	.st9{fill:#C53F3F;}
	.st10{fill:#455A64;}
	.st11{fill:#DBDBDB;}
	.st12{opacity:0.1;enable-background:new    ;}
	.st13{opacity:0.2;}
	.st14{opacity:0.2;enable-background:new    ;}
	.st15{font-family:'NanumSquareEB';}
	.st16{font-size:30px;}
	.st17{font-size:28.8592px;}
	.st18{display:inline;fill:#A6A6A6;}
	.st19{display:inline;fill:#FFFFFF;}
	.st20{display:inline;fill:#FFFEFD;}
	.st21{display:inline;fill:#C7C7C7;}
	.st22{display:inline;fill:#FFC4C0;}
	.st23{display:inline;fill:#37474F;}
	.st24{display:inline;fill:#FF9BBC;}
	.st25{clip-path:url(#SVGID_2_);}
</style>
<g id="freepik--background-complete--inject-386" class="st0">
	<g id="el5lwn5gjz4i2" class="st1">
		<rect id="elhsnoqyd71k8" x="402.1" y="362.6" class="st2" width="35.2" height="11.2"/>
	</g>
	<g id="elri89u8cdfde" class="st1">
		<rect id="elen5jdr9iyl5" x="188.4" y="209.8" class="st2" width="35.2" height="11.2"/>
	</g>
	<path id="elwjcnstehijn" class="st3" d="M421.7,387.9l17.7-0.3l8.8-0.1l8.7,0l-0.5,0.5v-11.2l0.5,0.5l-17.6-0.1l-8.8-0.1l-8.8-0.1
		l0.2-0.2L421.7,387.9z M421.7,387.9l-0.2-11.2v-0.2h0.2l8.8-0.1l8.8-0.1l17.6-0.1h0.5v0.5v11.2v0.5h-0.5l-8.9,0l-8.8-0.1
		L421.7,387.9z"/>
	<path id="el52grps8ey5l" class="st3" d="M254.5,438.3l17.7-0.3l8.8-0.1h8.7l-0.5,0.5v-11.2l0.5,0.5l-17.6-0.1l-8.8-0.1l-8.8-0.1
		l0.2-0.2L254.5,438.3z M254.5,438.3l-0.2-11.2v-0.2h0.2l8.8-0.1l8.8-0.1l17.6-0.1h0.5v0.5l0,11.2v0.5h-0.5h-8.9l-8.8-0.1
		L254.5,438.3z"/>
	<path id="elzhkuitv277" class="st3" d="M274.1,452.4l17.7-0.3l8.8-0.1h8.7l-0.5,0.5v-11.2l0.5,0.5l-17.6-0.1l-8.8-0.1l-8.8-0.1
		l0.2-0.2L274.1,452.4z M274.1,452.4l-0.2-11.2V441h0.2l8.8-0.1l8.8-0.1l17.6-0.1h0.5v0.5v11.2v0.5h-0.5h-8.9l-8.8-0.1L274.1,452.4z
		"/>
	<g id="el9ha0dkreqz5" class="st1">
		<rect id="elc8j1duq7xfs" x="293.6" y="427.1" class="st2" width="35.2" height="11.2"/>
	</g>
	<g id="elmnzgkla84s" class="st1">
		<rect id="elsrn0tb2bnga" x="43.2" y="376.7" class="st2" width="35.2" height="11.2"/>
	</g>
	<g id="elegus1vksftw" class="st1">
		<rect id="elghe4d4p7mqe" x="62.8" y="44.9" class="st2" width="35.2" height="11.2"/>
	</g>
	<path id="elpgcaj5hxro8" class="st3" d="M43.2,70.2l17.7-0.3l8.8-0.1h8.7l-0.5,0.4V59.1l0.5,0.5l-17.6-0.1L52,59.4l-8.8-0.1
		l0.2-0.3L43.2,70.2z M43.2,70.2L42.9,59v-0.2h0.2l8.8-0.1l8.8-0.1l17.6-0.1h0.5V59v11.2v0.5h-0.4h-8.9l-8.8-0.1L43.2,70.2z"/>
	<path id="el8loi1zw5q43" class="st3" d="M402.1,56.1l17.7-0.3l8.8-0.1h8.7l-0.5,0.5V45l0.5,0.5l-17.6-0.1l-8.8-0.1l-8.8-0.1
		l0.2-0.2L402.1,56.1z M402.1,56.1l-0.2-11.2v-0.2h0.2l8.8-0.1l8.8-0.1l17.6-0.1h0.5v0.5l0,11.2v0.5h-0.5h-8.9l-8.8-0.1L402.1,56.1z
		"/>
</g>
<g id="freepik--Plant--inject-386" class="st0">
	<path id="elvltc9azmc4d" class="st4" d="M451.2,385.1c-11,14.9-22.5,32.2-25.3,51c0,0.1,0.1,0.3,0.2,0.3c0.1,0,0.2-0.1,0.3-0.2
		c1.3-5.1,2.9-10.1,4.9-15c7.2-2,14.4-3.6,18.2-10.8c3.9-7.4,3.4-17,2.6-25.1C452,384.8,451.4,384.8,451.2,385.1z"/>
	<path id="elnk35dah0gbc" class="st5" d="M431.4,421c5-11.1,11.3-22.3,19.4-31.4c0.1-0.1,0.1,0,0.1,0.1c-5.3,6.5-9.3,13.6-13.2,20.8
		c3.6-3.7,7.6-7,11.1-11c0,0,0.1,0,0.1,0c0,0,0,0.1,0,0.1c-3.4,4.1-7.2,8.6-11.6,11.6c-1.2,2.2-2.4,4.4-3.6,6.6l0.9-0.5
		c0,0,0.1,0.1,0,0.1c-0.3,0.2-0.7,0.4-1,0.5c-0.6,1-1.1,2.1-1.8,3.1C431.6,421.5,431.2,421.3,431.4,421z"/>
	<path id="el1xos4galjho" class="st5" d="M435,417.2c3-1.7,5.8-3.6,8.5-5.6c0.1-0.1,0.2,0,0.1,0.1c-2.6,2.2-5.4,4.2-8.4,5.8
		C435,417.4,434.9,417.2,435,417.2z"/>
	<path id="elwyhgywaih1" class="st4" d="M424.6,433.3c0,0.1,0.1,0.2,0.2,0.2c0.1,0,0.2-0.1,0.2-0.2c0.1-6.2,0-12.4,0.1-18.5
		c1.6-3.2,5-5,7.3-7.5c1.7-1.9,3.2-3.9,4.4-6.1c2.8-5.3,4.6-11,5.1-17c0.6-6.6-1.9-28.3-4.6-27.6c-1.4,0.4-6.1,11.2-7.3,14.7
		c-2,5.9-3.5,11.9-4.4,18.1C423.3,403.8,423.5,418.7,424.6,433.3z"/>
	<path id="elflbmeq0blcr" class="st5" d="M424.6,406.7L424.6,406.7c0.3-7.8,2.1-15.7,3.7-23.2c1.8-8.1,3.8-15.8,8-23.1
		c0-0.1,0.1-0.1,0.2,0c0.1,0,0.1,0.1,0,0.2l0,0c-2.8,5.7-5,11.6-6.5,17.7c0.3-0.4,0.6-0.9,0.9-1.3c0.1-0.2,0.4,0,0.3,0.2
		c-0.4,0.7-0.8,1.3-1.3,1.9h0c-1.4,5.8-2.5,11.8-3.4,17.7c0.1-0.1,0.1-0.1,0.2-0.2s0.1,0,0.1,0.1s-0.2,0.4-0.4,0.6
		c-0.5,3-0.9,6-1.3,9c5.4-4.6,10-10,12.5-16.7c0,0,0.1,0,0,0c-2.5,6.9-6.5,13.1-12.7,17.3l-0.3,2.4c0,0.2-0.3,0.1-0.3,0
		c0-0.7,0-1.4,0.1-2.1C424.5,406.9,424.4,406.8,424.6,406.7C424.5,406.7,424.5,406.7,424.6,406.7z"/>
	<path id="elic2vv2rlfzd" class="st5" d="M427.1,395.4c4.2-5.9,7.8-12.3,10.9-18.8c0-0.1,0.2,0,0.1,0.1c-2.5,6.7-6.1,13.5-10.9,18.9
		c-0.1,0-0.1,0-0.2-0.1C427.1,395.5,427.1,395.4,427.1,395.4z"/>
	<path id="elyww921dls6b" class="st5" d="M432.5,375c1.7-3,3.5-5.9,5.1-9c0-0.1,0.2,0,0.1,0.1c-1.3,3.2-3,6.2-5,9.1
		C432.7,375.4,432.5,375.2,432.5,375z"/>
	<path id="elul9nvsmps7" class="st5" d="M431.9,376.4L431.9,376.4L431.9,376.4z"/>
	<path id="eltylmm1xkiib" class="st4" d="M420.4,415.5c-0.1,4.1-0.6,8.1-1.4,12.1c0.1,0.4,0.1,0.9,0.2,1.3c1.3-4.4,2-9,2.2-13.5
		c0.1-0.1,0.1-0.3,0-0.4l0,0c0.2-6.1-0.3-12.3-1.4-18.3c-1.9-11.3-6.1-22.2-14-30.7c-0.2-0.2-0.6-0.2-0.8,0.1c0,0-0.1,0.1-0.1,0.1
		c-3.2,8.1-2.1,17.8,0.6,25.9c1.5,4.4,3.6,8.5,6.3,12.3C414.8,408.1,418.2,411.3,420.4,415.5z"/>
	<path id="el9s4crfw075o" class="st5" d="M407,369.7c7.5,12.1,12.7,26.6,13.3,40.9c0,0.2-0.4,0.3-0.5,0.1c-0.2-1.3-0.4-2.6-0.6-3.8
		l0,0c-3.1-3-6.3-6.1-8.5-9.8c0-0.1,0-0.1,0.1-0.1c2.6,3.2,5.3,6.2,8.2,9c-0.5-3.2-1.2-6.3-1.9-9.4l-0.6-0.7
		c-0.1-0.1,0.1-0.4,0.2-0.2l0.2,0.2c-1.1-4.2-2.4-8.4-3.9-12.4c-1.9-2.3-4-4.2-5.4-7c0-0.1,0.1-0.1,0.1,0c1.1,1.6,2.2,3.1,3.5,4.6
		c0.5,0.6,1.1,1.1,1.6,1.7c-1.7-4.4-3.8-8.7-6.1-12.8c0-0.1,0-0.2,0.1-0.2C406.9,369.7,407,369.7,407,369.7z"/>
	<path id="el2egposazkij" class="st5" d="M408.5,384.7c2.4,3.3,5.2,6.4,7.4,9.7c0.1,0.1-0.1,0.2-0.1,0.1c-2.9-2.9-5.4-6.2-7.4-9.8
		C408.3,384.7,408.4,384.6,408.5,384.7z"/>
	<path id="elkg6g8yaveeh" class="st5" d="M416.2,395.2l0.1,0.1c0.1,0.1,0,0.2-0.1,0.1l-0.1-0.1C416.1,395.3,416.1,395.2,416.2,395.2
		C416.2,395.2,416.2,395.2,416.2,395.2z"/>
	<path id="el28kfvp19gg" class="st4" d="M395.2,393.1c0.9,6.8,3.6,13.2,7.9,18.5c1.8,2.1,4,3.8,6.4,5c2.8,1.4,5.7,3,8.5,4.1
		c1.4,3.5,2.4,7.1,3,10.8l0.3-1c-1.8-15.8-12.1-29.4-25.2-38c-0.3-0.2-0.7-0.1-0.9,0.2C395.3,392.8,395.2,393,395.2,393.1z"/>
	<path id="el8auc5mfioue" class="st5" d="M399.8,397.8c-0.1-0.1,0-0.2,0.1-0.2c7.2,5.3,12.9,12.4,16.7,20.6c0.1,0.2-0.2,0.4-0.3,0.2
		c-0.6-1.1-1.2-2.1-1.9-3.1l0,0c-3-0.6-5.8-2.7-8-4.7c-0.1,0,0-0.1,0.1-0.1c1.1,1,2.4,1.9,3.8,2.6c1.2,0.6,2.5,1,3.8,1.5
		c-1.1-1.8-2.3-3.5-3.5-5.1c-3.2-1.2-6.3-2.9-9-5.1c-0.1-0.1,0-0.2,0.1-0.1c2.7,1.6,5.5,3.1,8.4,4.5c-1.8-2.4-3.8-4.7-5.9-6.9
		c-1-0.5-2-1.1-3-1.6c0,0-0.1-0.1,0-0.1c0,0,0.1-0.1,0.1,0c0.8,0.3,1.6,0.7,2.3,1.1C402.3,400.1,401.1,398.9,399.8,397.8z"/>
	<path id="elqjd5e2tvll" class="st5" d="M400,403.2c0.2,0.1,0.3,0.2,0.5,0.4c0,0,0,0.1-0.1,0.1c-0.2-0.1-0.4-0.2-0.5-0.3
		c0,0,0-0.1,0-0.1S400,403.2,400,403.2z"/>
	<polygon id="el37oumdbx4l4" class="st6" points="441.9,465.7 406,465.7 408.9,433 409.5,425.8 438.3,425.8 439,433 	"/>
	<polygon id="elospkpy01gk" class="st5" points="439,433 408.9,433 409.5,425.8 438.3,425.8 	"/>
	<rect id="el6xzgxgckib" x="407.8" y="420.8" class="st6" width="32.3" height="7.1"/>
</g>
<g id="freepik--Floor--inject-386" class="st0">
	<polygon id="ela4z18yg1stc" class="st5" points="47.4,465.7 98.1,465.5 148.7,465.4 250,465.2 351.3,465.4 401.9,465.5 
		452.6,465.7 401.9,466 351.3,466.1 250,466.2 148.7,466.1 98.1,466 	"/>
</g>
<g id="freepik--Screen--inject-386">
	<rect id="elkiiv3prhe9n" x="65.9" y="69.9" class="st7" width="368.3" height="233"/>
	<path id="el9lvfw9c3gij" class="st8" d="M434.1,302.9l-368.3,0.2h-0.2v-0.2l-0.1-233v-0.2h0.2l368.3,0.2h0.1v0.1L434.1,302.9z
		 M434.1,302.9l-0.1-233l0.1,0.1L65.9,70.1l0.2-0.2l-0.1,233l-0.2-0.1L434.1,302.9z"/>
	<rect id="elu41e685m6n" x="65.9" y="69.9" class="st8" width="368.3" height="9"/>
	<path id="elajwfojtp8pd" class="st9" d="M74.5,74.4c0,1-0.8,1.8-1.8,1.8c-1,0-1.8-0.8-1.8-1.8c0-1,0.8-1.8,1.8-1.8c0,0,0,0,0,0
		C73.7,72.6,74.5,73.4,74.5,74.4z"/>
	<path id="el8w2akmehztj" class="st7" d="M81.9,74.4c0,1-0.8,1.8-1.8,1.8c-1,0-1.8-0.8-1.8-1.8c0-1,0.8-1.8,1.8-1.8c0,0,0,0,0,0
		C81.1,72.6,81.9,73.4,81.9,74.4z"/>
	<path id="els9pys2sb3p" class="st10" d="M89.3,74.4c0,1-0.8,1.8-1.8,1.8c-1,0-1.8-0.8-1.8-1.8c0-1,0.8-1.8,1.8-1.8c0,0,0,0,0,0
		C88.4,72.6,89.3,73.4,89.3,74.4z"/>
	<path id="elxykmo0qzxxf" class="st11" d="M102.5,207.8c8.6-0.2,17.1-0.2,25.7-0.3l25.7-0.1l25.7,0.1l12.8,0.1l12.8,0.2l-12.8,0.2
		l-12.8,0.1l-25.7,0.1l-25.7-0.1C119.6,208,111,207.9,102.5,207.8z"/>
	<path id="elrygfic5aaro" class="st11" d="M102.5,215.9c8.6-0.2,17.1-0.2,25.7-0.3l25.7-0.1l25.7,0.1l12.8,0.1l12.8,0.2l-12.8,0.2
		l-12.8,0.1l-25.7,0.1l-25.7-0.1C119.6,216.2,111,216.1,102.5,215.9z"/>
	<path id="elwckout4kz7p" class="st11" d="M102.5,224.1c5.2-0.2,10.4-0.2,15.6-0.3s10.4-0.1,15.6-0.1s10.4,0,15.6,0.1l7.8,0.1
		c2.6,0.1,5.2,0.1,7.8,0.2c-2.6,0.1-5.2,0.1-7.8,0.2l-7.8,0.1c-5.2,0.1-10.4,0.1-15.6,0.1s-10.4,0-15.6-0.1S107.7,224.2,102.5,224.1
		z"/>
	<rect id="el3tr70a5178" x="102.5" y="240.8" class="st9" width="47.2" height="13"/>
	<path id="elt6twgv7v4zf" class="st7" d="M108.5,249.3v-4h0.4v3.7h2.3v0.4L108.5,249.3z"/>
	<path id="elncvsmrpsr09" class="st7" d="M114.5,249v0.4h-2.7v-4h2.6v0.4h-2.2v1.4h1.9v0.3h-1.9v1.5H114.5z"/>
	<path id="el5hau2909684" class="st7" d="M116.4,245.3h0.3l1.7,4H118l-0.5-1.2h-1.8l-0.5,1.2h-0.4L116.4,245.3z M117.4,247.8l-0.8-2
		l-0.8,2H117.4z"/>
	<path id="elfv9n0xobwg" class="st7" d="M119,249.3v-4h1.7c0.2,0,0.3,0,0.5,0.1c0.3,0.1,0.5,0.4,0.6,0.7c0.1,0.1,0.1,0.3,0.1,0.5
		c0,0.1,0,0.3-0.1,0.4c0,0.1-0.1,0.3-0.2,0.4c-0.1,0.1-0.2,0.2-0.3,0.3c-0.1,0.1-0.2,0.1-0.4,0.1l1,1.5h-0.4l-0.9-1.5h-1.2v1.5
		L119,249.3z M119.4,247.5h1.3c0.1,0,0.2,0,0.3-0.1c0.1-0.1,0.2-0.1,0.2-0.2c0.1-0.1,0.1-0.2,0.2-0.3c0-0.1,0.1-0.2,0.1-0.3
		c0-0.1,0-0.2-0.1-0.4c0-0.1-0.1-0.2-0.2-0.3c-0.1-0.1-0.2-0.1-0.3-0.2c-0.1,0-0.2-0.1-0.3-0.1h-1.3V247.5z"/>
	<path id="elmup05apo6am" class="st7" d="M123.1,246.1v3.2h-0.4v-4h0.3l2.6,3.3v-3.3h0.4v4h-0.3L123.1,246.1z"/>
	<path id="elr1rje6msodi" class="st7" d="M131.9,249.3v-3.3l-1.4,2.5h-0.2l-1.4-2.5v3.3h-0.4v-4h0.4l1.6,2.7l1.6-2.7h0.4v4H131.9z"
		/>
	<path id="elbjyf947lm7b" class="st7" d="M134.9,249.3c-0.3,0-0.5-0.1-0.8-0.2c-0.2-0.1-0.4-0.3-0.6-0.4c-0.2-0.2-0.3-0.4-0.4-0.6
		c-0.1-0.2-0.1-0.5-0.1-0.7c0-0.5,0.2-1,0.5-1.4c0.2-0.2,0.4-0.3,0.6-0.4c0.2-0.1,0.5-0.2,0.7-0.2c0.3,0,0.5,0.1,0.8,0.2
		c0.2,0.1,0.4,0.3,0.6,0.5c0.2,0.2,0.3,0.4,0.4,0.6c0.1,0.2,0.1,0.5,0.1,0.7c0,0.3,0,0.5-0.1,0.8c-0.1,0.2-0.2,0.4-0.4,0.6
		c-0.2,0.2-0.4,0.3-0.6,0.4C135.4,249.3,135.2,249.3,134.9,249.3z M133.4,247.3c0,0.2,0,0.4,0.1,0.6c0.1,0.2,0.2,0.4,0.3,0.5
		c0.1,0.2,0.3,0.3,0.5,0.4c0.2,0.1,0.4,0.1,0.6,0.1c0.2,0,0.4,0,0.6-0.1c0.2-0.1,0.3-0.2,0.5-0.4c0.1-0.2,0.2-0.3,0.3-0.5
		c0.1-0.2,0.1-0.4,0.1-0.6c0-0.2,0-0.4-0.1-0.6c-0.1-0.2-0.2-0.4-0.3-0.5c-0.1-0.1-0.3-0.3-0.5-0.4c-0.2-0.1-0.4-0.1-0.6-0.1
		c-0.2,0-0.4,0-0.6,0.1c-0.4,0.2-0.6,0.5-0.8,0.9C133.5,246.9,133.5,247.1,133.4,247.3L133.4,247.3z"/>
	<path id="elbeoov3jlbc9" class="st7" d="M137.5,249.3v-4h1.7c0.2,0,0.3,0,0.5,0.1c0.1,0.1,0.3,0.2,0.4,0.3c0.1,0.1,0.2,0.3,0.2,0.4
		c0.1,0.1,0.1,0.3,0.1,0.5c0,0.1,0,0.3-0.1,0.4c0,0.1-0.1,0.3-0.2,0.4c-0.1,0.1-0.2,0.2-0.3,0.3c-0.1,0.1-0.2,0.1-0.4,0.1l1,1.5H140
		l-0.9-1.5h-1.2v1.5L137.5,249.3z M137.9,247.5h1.3c0.1,0,0.2,0,0.3-0.1c0.1-0.1,0.2-0.1,0.2-0.2c0.1-0.1,0.1-0.2,0.2-0.3
		c0-0.1,0.1-0.2,0.1-0.3c0-0.1,0-0.2-0.1-0.4c0-0.1-0.1-0.2-0.2-0.3c-0.1-0.1-0.2-0.1-0.3-0.2c-0.1,0-0.2-0.1-0.3-0.1h-1.3
		L137.9,247.5z"/>
	<path id="elca2t2asc6oi" class="st7" d="M143.9,249v0.4h-2.7v-4h2.6v0.4h-2.2v1.4h1.9v0.3h-1.9v1.5H143.9z"/>
	<rect id="eldk20grb9uj" x="102.5" y="132.1" class="st7" width="1.9" height="1.9"/>
	<rect id="ele52jb9z35xg" x="166" y="132.1" class="st7" width="1.9" height="1.9"/>
	<rect id="elqgzuqpl3xxd" x="102.5" y="146.1" class="st7" width="1.9" height="1.9"/>
	<rect id="elc1yncscxgz5" x="102.5" y="160" class="st7" width="1.9" height="1.9"/>
	<rect id="elxxty0cawex" x="166" y="160" class="st7" width="1.9" height="1.9"/>
	<rect id="elrfkm2nqo2qi" x="229.6" y="132.1" class="st7" width="1.9" height="1.9"/>
	<rect id="elfzjc9pqhw5r" x="229.6" y="146.1" class="st7" width="1.9" height="1.9"/>
	<rect id="elck1cl2747jr" x="229.6" y="160" class="st7" width="1.9" height="1.9"/>
	<g id="eldmikkycte44">
		<rect id="el28r1s1mekm4" x="264.1" y="140.1" class="st9" width="125.5" height="85.6"/>
	</g>
	<g id="eldndvuhujsd">
		<polygon id="el7pa8rv76h1o" class="st12" points="316.7,203.5 389.6,203.5 353.1,175.6 		"/>
	</g>
	<polygon id="elx3o4a4ab85j" class="st9" points="288.8,203.5 348.9,203.5 318.8,185.3 	"/>
	<g id="el5gkovgdygd5">
		<g id="eliydl00deg2r" class="st13">
			<polygon id="el34hst2yqg2a" points="288.8,203.5 348.9,203.5 318.8,185.3 			"/>
		</g>
	</g>
	<rect id="elmh9uvijef9t" x="264.1" y="203.5" class="st9" width="125.5" height="22.2"/>
	<g id="el4ghvipn6ov">
		<rect id="elzi3hour5p0p" x="264.1" y="203.5" class="st14" width="125.5" height="22.2"/>
	</g>
	<g id="elfz09oz6gaa9">
		<path id="elqy7kxs4hw4" class="st12" d="M295.9,171c0,3.8-3.1,6.9-6.9,6.9s-6.9-3.1-6.9-6.9s3.1-6.9,6.9-6.9
			S295.9,167.2,295.9,171L295.9,171z"/>
	</g>
	<path id="elhl0037juafo" class="st8" d="M395.4,231.5H258.2v-97.3h137.2V231.5z M258.5,231.3h136.7v-96.8H258.5V231.3z"/>
	<rect id="elmxadhfq1kts" x="256.1" y="132.1" class="st7" width="4.5" height="4.5"/>
	<path id="elvx9pyuybm" class="st8" d="M260.7,136.7H256V132h4.7V136.7z M256.2,136.5h4.2v-4.2h-4.2V136.5z"/>
	<rect id="eludg0mz68on" x="324.6" y="132.1" class="st7" width="4.5" height="4.5"/>
	<path id="elbyz78yn5i7v" class="st8" d="M329.2,136.7h-4.7V132h4.7V136.7z M324.7,136.5h4.3v-4.2h-4.2L324.7,136.5z"/>
	<rect id="elmandh6ohgm" x="393.1" y="132.1" class="st7" width="4.5" height="4.5"/>
	<path id="el3waug0mr648" class="st8" d="M397.7,136.7h-4.7V132h4.7V136.7z M393.2,136.5h4.2v-4.2h-4.2V136.5z"/>
	<rect id="elpxgox23il7l" x="256.1" y="180.6" class="st7" width="4.5" height="4.5"/>
	<path id="elak734ju0p4b" class="st8" d="M260.7,185.2H256v-4.7h4.7V185.2z M256.2,185h4.2v-4.2h-4.2V185z"/>
	<rect id="el5bt9qv67jk6" x="393.1" y="180.6" class="st7" width="4.5" height="4.5"/>
	<path id="elmd6vrcquijk" class="st8" d="M397.7,185.2h-4.7v-4.7h4.7V185.2z M393.2,185h4.2v-4.2h-4.2V185z"/>
	<rect id="elh08kh6jc5cd" x="256.1" y="229.2" class="st7" width="4.5" height="4.5"/>
	<path id="elf0fz3biy30m" class="st8" d="M260.7,233.8H256V229h4.7V233.8z M256.2,233.5h4.2v-4.2h-4.2V233.5z"/>
	<rect id="el3i0y0vuyun3" x="324.6" y="229.2" class="st7" width="4.5" height="4.5"/>
	<path id="elpkm51mqz07" class="st8" d="M329.2,233.8h-4.7V229h4.7V233.8z M324.7,233.5h4.3v-4.2h-4.2L324.7,233.5z"/>
	<rect id="el3l0tqjkqqh2" x="393.1" y="229.2" class="st7" width="4.5" height="4.5"/>
	<path id="elu9tmx7e03g" class="st8" d="M397.7,233.8h-4.7V229h4.7V233.8z M393.2,233.5h4.2v-4.2h-4.2V233.5z"/>
	<g id="elalymffahwhv">
		<rect id="eloi7gj6nlhhc" x="264.1" y="243" class="st9" width="32.9" height="32.9"/>
	</g>
	<g id="el6jdgzq8zsl7">
		<path id="elpdj7v8ks08n" class="st12" d="M269.4,250.9c-0.3,1.7,0.8,3.3,2.4,3.7s3.3-0.8,3.7-2.4c0.3-1.7-0.8-3.3-2.4-3.7
			c-0.4-0.1-0.8-0.1-1.2,0C270.6,248.7,269.6,249.6,269.4,250.9z"/>
	</g>
	<g id="ely5bsntotbnl">
		<polygon id="eluqp91pgjpnm" class="st12" points="273.2,267.4 297,267.4 285.1,254.1 		"/>
	</g>
	<polygon id="elf2bc26h7b15" class="st9" points="264.1,267.4 283.7,267.4 273.9,258.7 	"/>
	<g id="elw60nltj97en">
		<g id="elc8pm8uow04v" class="st13">
			<polygon id="elgylwxqqk9y" points="264.1,267.4 283.7,267.4 273.9,258.7 			"/>
		</g>
	</g>
	<rect id="elodsqqot1bl" x="264.1" y="267.4" class="st9" width="32.9" height="8.5"/>
	<g id="elocdbpjlzs1">
		<rect id="elpxeitogp94" x="264.1" y="267.4" class="st14" width="32.9" height="8.5"/>
	</g>
	<polygon id="eli6ekv2utvo" class="st8" points="311.9,276.1 310.2,276.1 310.2,274.5 310.5,274.5 310.5,275.8 311.9,275.8 	"/>
	<path id="elgktk9dpt1l" class="st8" d="M339.1,276.1h-2.7v-0.2h2.7V276.1z M333.6,276.1h-2.7v-0.2h2.7V276.1z M328.2,276.1h-2.7
		v-0.2h2.7V276.1z M322.7,276.1H320v-0.2h2.7L322.7,276.1z M317.3,276.1h-2.7v-0.2h2.7V276.1z"/>
	<polygon id="el1x17pb7d115" class="st8" points="343.4,276.1 341.8,276.1 341.8,275.8 343.2,275.8 343.2,274.5 343.4,274.5 	"/>
	<path id="el0ut8c5cnl2jm" class="st8" d="M343.4,271.7h-0.2V269h0.2V271.7z M343.4,266.3h-0.2v-2.7h0.2V266.3z M343.4,260.8h-0.2
		v-2.7h0.2V260.8z M343.4,255.4h-0.2v-2.7h0.2V255.4z M343.4,250h-0.2v-2.7h0.2V250z"/>
	<polygon id="eljsvxr447lq" class="st8" points="343.4,244.5 343.2,244.5 343.2,243.1 341.8,243.1 341.8,242.9 343.4,242.9 	"/>
	<path id="elzm2i4q0padq" class="st8" d="M339.1,243.1h-2.7v-0.2h2.7V243.1z M333.6,243.1h-2.7v-0.2h2.7V243.1z M328.2,243.1h-2.7
		v-0.2h2.7V243.1z M322.7,243.1H320v-0.2h2.7L322.7,243.1z M317.3,243.1h-2.7v-0.2h2.7V243.1z"/>
	<polygon id="el27ant3a335i" class="st8" points="310.5,244.5 310.2,244.5 310.2,242.9 311.9,242.9 311.9,243.1 310.5,243.1 	"/>
	<path id="eliser7xtv9e" class="st8" d="M310.5,271.7h-0.2V269h0.2V271.7z M310.5,266.3h-0.2v-2.7h0.2V266.3z M310.5,260.8h-0.2
		v-2.7h0.2V260.8z M310.5,255.4h-0.2v-2.7h0.2V255.4z M310.5,250h-0.2v-2.7h0.2V250z"/>
	<rect id="el1sw4k6csanz" x="326" y="252" class="st8" width="1.6" height="15"/>
	<g id="elpq5efgqkctq">
		<rect id="elfkkbal7uaim" x="326" y="252" class="st8" width="1.6" height="15"/>
	</g>
	<g id="elka67y3kyjte">
		<rect id="el3xwrzqzk5lg" x="356.6" y="243" class="st9" width="32.9" height="32.9"/>
	</g>
	<g id="eloc7sp74g9gn">
		<path id="elr29pno391t" class="st12" d="M362,250.9c-0.3,1.7,0.8,3.3,2.4,3.7s3.3-0.8,3.7-2.4c0.3-1.7-0.8-3.3-2.4-3.7
			c-0.4-0.1-0.8-0.1-1.2,0C363.2,248.7,362.2,249.6,362,250.9z"/>
	</g>
	<g id="elwzdozuyplg">
		<polygon id="elx4rtr4w3usm" class="st12" points="365.8,267.4 389.6,267.4 377.7,254.1 		"/>
	</g>
	<polygon id="eldg6pzfbax3a" class="st9" points="356.6,267.4 376.3,267.4 366.5,258.7 	"/>
	<g id="elol5helhcvug">
		<g id="elsb5winf5h3" class="st13">
			<polygon id="elxkxk5la7u4q" points="356.6,267.4 376.3,267.4 366.5,258.7 			"/>
		</g>
	</g>
	<rect id="el8dojo8qqqfn" x="356.6" y="267.4" class="st9" width="32.9" height="8.5"/>
	<g id="el7zo4oj2veo">
		<rect id="elze9asf5rs9" x="356.6" y="267.4" class="st14" width="32.9" height="8.5"/>
	</g>
	<rect id="el4wrv0s8y46k" x="92.9" y="99" class="st2" width="7.3" height="1.2"/>
	<rect id="el04tanny5qrim" x="92.9" y="104.3" class="st2" width="7.3" height="1.2"/>
	<rect id="el814eu8c1we8" x="92.9" y="101.7" class="st2" width="7.3" height="1.2"/>
	<rect id="eltvanz5rrqta" x="184.6" y="101.7" class="st2" width="43.5" height="2.6"/>
	<rect id="el95qawt19ua" x="244.3" y="101.7" class="st2" width="43.5" height="2.6"/>
	<rect id="elinynua7vsep" x="304" y="101.7" class="st9" width="43.5" height="2.6"/>
	<rect id="elxzrg1rfw7gf" x="363.6" y="101.7" class="st2" width="43.5" height="2.6"/>
	<text transform="matrix(1 0 0 1 105.2283 154.2355)"><tspan x="0" y="0" class="st2 st15 st16">이력서</tspan><tspan x="0" y="38" class="st2 st15 st16">바로가기</tspan></text>
	<text transform="matrix(1.0578 0 0 1 101.9761 153.4874)"><tspan x="0" y="0" class="st9 st15 st17">이력서</tspan><tspan x="0" y="36.6" class="st9 st15 st17">바로가기</tspan></text>
</g>
<g id="freepik--Gears--inject-386" class="st0">
	<path id="eljheo9m4ioyo" class="st18" d="M406.7,95.8c0,10.7,8.7,19.4,19.5,19.4s19.4-8.7,19.4-19.5s-8.7-19.4-19.5-19.4
		C415.4,76.4,406.7,85.1,406.7,95.8z M410.8,95.8c0-8.5,6.8-15.3,15.3-15.3c8.5,0,15.3,6.8,15.3,15.3s-6.8,15.3-15.3,15.3
		c0,0,0,0,0,0C417.6,111.1,410.8,104.3,410.8,95.8z M406.7,95.8c0,10.7,8.7,19.4,19.5,19.4s19.4-8.7,19.4-19.5s-8.7-19.4-19.5-19.4
		C415.4,76.4,406.7,85.1,406.7,95.8z M410.8,95.8c0-8.5,6.8-15.3,15.3-15.3c8.5,0,15.3,6.8,15.3,15.3s-6.8,15.3-15.3,15.3
		c0,0,0,0,0,0C417.6,111.1,410.8,104.3,410.8,95.8z M393.3,95.8c0,18.1,14.7,32.8,32.8,32.7s32.8-14.7,32.7-32.8
		c0-18.1-14.7-32.7-32.8-32.7C408,63,393.3,77.7,393.3,95.8C393.3,95.8,393.3,95.8,393.3,95.8z M404.8,95.8
		c0-11.8,9.5-21.3,21.3-21.3s21.3,9.5,21.3,21.3s-9.5,21.3-21.3,21.3c0,0,0,0,0,0C414.3,117.1,404.8,107.6,404.8,95.8z M406.7,95.8
		c0,10.7,8.7,19.4,19.5,19.4s19.4-8.7,19.4-19.5s-8.7-19.4-19.5-19.4C415.4,76.4,406.7,85.1,406.7,95.8z M410.8,95.8
		c0-8.5,6.8-15.3,15.3-15.3c8.5,0,15.3,6.8,15.3,15.3s-6.8,15.3-15.3,15.3c0,0,0,0,0,0C417.6,111.1,410.8,104.3,410.8,95.8z"/>
	<polygon id="eljzlf8sagx6m" class="st18" points="422.2,63.6 429.8,63.6 429,56.1 423,56.1 	"/>
	<polygon id="ell3xpqh3acm9" class="st18" points="438.9,66 445.4,69.8 448.5,62.9 443.2,59.9 	"/>
	<polygon id="elnw3ydw7x25q" class="st18" points="452,76.4 455.8,82.9 461.9,78.5 458.9,73.3 	"/>
	<polygon id="eln9j25t1tjjq" class="st18" points="458.3,92 458.3,99.5 465.8,98.7 465.8,92.7 	"/>
	<polygon id="elm3yd6lip5ye" class="st18" points="455.9,108.6 452.1,115.1 459,118.2 462,113 	"/>
	<polygon id="el9to8vf204xp" class="st18" points="445.5,121.8 439,125.5 443.4,131.6 448.6,128.6 	"/>
	<polygon id="elw6df2n2zhlc" class="st18" points="430,128 422.4,128 423.2,135.5 429.2,135.5 	"/>
	<polygon id="el1fz9baf0py1" class="st18" points="413.3,125.6 406.8,121.9 403.7,128.7 409,131.7 	"/>
	<polygon id="ell4fimyppc0i" class="st18" points="400.1,115.2 396.4,108.7 390.3,113.1 393.3,118.3 	"/>
	<polygon id="elk0gbiro2x1j" class="st18" points="393.9,99.7 393.9,92.2 386.4,92.9 386.4,98.9 	"/>
	<polygon id="eliqkq63j7th" class="st18" points="396.3,83.1 400,76.6 393.2,73.5 390.2,78.7 	"/>
	<polygon id="ellgzmm6u1s7b" class="st18" points="406.7,69.9 413.2,66.1 408.8,60 403.6,63 	"/>
	<path id="eln48buaj4m38" class="st6" d="M347.7,67.2c-0.3,10.5,8,19.3,18.6,19.6c10.5,0.3,19.3-8,19.6-18.6
		c0.3-10.5-8-19.3-18.6-19.6c0,0,0,0,0,0C356.8,48.4,348,56.7,347.7,67.2C347.7,67.2,347.7,67.2,347.7,67.2z M357.9,67.5
		c0.1-4.9,4.2-8.8,9.1-8.7c4.9,0.1,8.8,4.2,8.7,9.1c-0.1,4.9-4.2,8.8-9.1,8.7c0,0,0,0,0,0C361.7,76.5,357.8,72.4,357.9,67.5
		L357.9,67.5z"/>
	<polygon id="eluvhsvtfuin" class="st6" points="363.6,49.3 371,49.5 370.7,44.3 364.2,44.2 	"/>
	<polygon id="el3hmipljxsbu" class="st6" points="377.5,52.2 382.6,57.5 386,53.6 381.6,48.9 	"/>
	<polygon id="el98loh5f2ecc" class="st6" points="385.3,64 385.1,71.3 390.3,71.1 390.5,64.5 	"/>
	<polygon id="elb3u2var2ig" class="st6" points="382.5,77.9 377.2,82.9 381,86.4 385.8,81.9 	"/>
	<polygon id="el4dl1k3yidbg" class="st6" points="370.7,85.7 363.3,85.5 363.6,90.7 370.1,90.9 	"/>
	<polygon id="elzkp3kegjsw" class="st6" points="356.8,82.9 351.7,77.6 348.2,81.4 352.7,86.2 	"/>
	<polygon id="ellh6kh8zlfz" class="st6" points="349,71 349.1,63.7 343.9,64 343.8,70.5 	"/>
	<polygon id="elh4zbvrjez5b" class="st6" points="351.8,57.1 357.1,52.1 353.2,48.6 348.5,53.1 	"/>
	<path id="elcburjcsjsgd" class="st6" d="M371.9,63l-6.2-1.9l-4.7,4.5l1.5,6.4l6.2,1.9l4.7-4.5L371.9,63z M367.1,69.5
		c-1.1,0-2-1-2-2.1s1-2,2.1-2s2,1,2,2.1c0,0,0,0,0,0C369.2,68.7,368.3,69.6,367.1,69.5C367.1,69.6,367.1,69.6,367.1,69.5L367.1,69.5
		z"/>
	<path id="elq1d4agep77" class="st4" d="M38.2,215.2c-0.3,10.5,8,19.3,18.6,19.6c10.5,0.3,19.3-8,19.6-18.6
		c0.3-10.5-8-19.3-18.6-19.6c0,0,0,0,0,0C47.2,196.4,38.5,204.7,38.2,215.2z M48.3,215.5c0.1-4.9,4.2-8.8,9.1-8.7s8.8,4.2,8.7,9.1
		c-0.1,4.9-4.2,8.8-9.1,8.7c0,0,0,0,0,0C52.1,224.5,48.2,220.4,48.3,215.5z"/>
	<polygon id="eletl72g6i4kc" class="st4" points="54.1,197.3 61.4,197.5 61.1,192.3 54.6,192.1 	"/>
	<polygon id="ellg328h8php" class="st4" points="68,200.2 73,205.5 76.5,201.6 72,196.9 	"/>
	<polygon id="elt7fb5ac5uup" class="st4" points="75.8,212 75.6,219.3 80.8,219.1 81,212.5 	"/>
	<polygon id="el85hxi1br2e5" class="st4" points="72.9,225.9 67.6,230.9 71.5,234.4 76.2,229.9 	"/>
	<polygon id="elctr2aheizvu" class="st4" points="61.1,233.7 53.8,233.5 54,238.7 60.6,238.9 	"/>
	<polygon id="elcodxrb2b3na" class="st4" points="47.2,230.9 42.2,225.6 38.7,229.4 43.2,234.1 	"/>
	<polygon id="elu6yc76xsqz" class="st4" points="39.4,219 39.6,211.7 34.4,212 34.2,218.5 	"/>
	<polygon id="elsqn90sb9og" class="st4" points="42.2,205.1 47.6,200.1 43.7,196.6 39,201.1 	"/>
	<path id="elbb4prtzw7n4" class="st4" d="M62.3,211l-6.3-1.9l-4.7,4.5l1.5,6.4l6.2,1.9l4.7-4.5L62.3,211z M57.5,217.6
		c-1.1,0-2-1-2-2.1s1-2,2.1-2c1.1,0,2,1,2,2.1c0,0,0,0,0,0C59.6,216.7,58.7,217.6,57.5,217.6C57.5,217.6,57.5,217.6,57.5,217.6
		L57.5,217.6z"/>
</g>
<g id="freepik--Code--inject-386" class="st0">
	<rect id="el0cn809hkq5re" x="309.1" y="295.3" class="st19" width="148.1" height="93.7"/>
	<path id="elgdyes9uzvm" class="st19" d="M309.7,388.5h147v-92.6h-147V388.5z"/>
	<path id="el7cd6omb1169" class="st5" d="M309.7,388.5l147-0.1l-0.1,0.1l-0.1-92.6l0.2,0.2l-147-0.1l0.1-0.1L309.7,388.5z
		 M309.7,388.5l-0.1-92.6v-0.1h0.1l147-0.1h0.2v0.2l-0.1,92.6v0.2h-0.2L309.7,388.5z"/>
	<rect id="eln7lflch5h1" x="309.7" y="295.9" class="st5" width="147" height="9.9"/>
	<rect id="elrdjth0crs4f" x="320.6" y="327.3" class="st3" width="5.7" height="2.1"/>
	<rect id="el0s2xq2r2ss4q" x="330.5" y="327.3" class="st3" width="65.7" height="2.1"/>
	<rect id="elk83dqdei1l" x="399.8" y="327.3" class="st4" width="10.9" height="2.1"/>
	<rect id="elgjd3nrlokbm" x="413" y="327.3" class="st18" width="18.8" height="2.1"/>
	<rect id="el1owx8dtg0si" x="326.3" y="332.9" class="st3" width="5.7" height="2.1"/>
	<rect id="elndiefod64lb" x="336.1" y="332.9" class="st18" width="43.1" height="2.1"/>
	<rect id="el2jyu6boaa49" x="330.5" y="349.7" class="st18" width="41.2" height="2.1"/>
	<rect id="elzs5568dqwv" x="336.1" y="338.5" class="st4" width="28.9" height="2.1"/>
	<rect id="el7kifpiff6rd" x="407" y="344.1" class="st18" width="11" height="2.1"/>
	<rect id="elcm7v9asiqy" x="368.2" y="338.5" class="st18" width="46.1" height="2.1"/>
	<rect id="el17k1qwf6pzo" x="330.5" y="355.3" class="st4" width="55.1" height="2.1"/>
	<rect id="elno651bobgn" x="411.8" y="332.9" class="st4" width="29.9" height="2.1"/>
	<rect id="el7ffzg2aurdx" x="381.9" y="332.9" class="st3" width="27.5" height="2.1"/>
	<rect id="el2qfxlx0780e" x="416.5" y="338.5" class="st3" width="18.5" height="2.1"/>
	<rect id="elo7dxfu8jrmb" x="326.3" y="338.5" class="st3" width="5.7" height="2.1"/>
	<rect id="el7dtun5bxz1l" x="320.6" y="344.1" class="st18" width="5.7" height="2.1"/>
	<rect id="elr3hvyne5vse" x="330.5" y="344.1" class="st3" width="33.9" height="2.1"/>
	<rect id="elwvkuhsyx3b" x="374" y="349.7" class="st3" width="36.6" height="2.1"/>
	<rect id="elr7hpj6048os" x="413" y="349.7" class="st4" width="23.3" height="2.1"/>
	<rect id="elzu58eqvrvof" x="367.8" y="344.1" class="st4" width="36.5" height="2.1"/>
	<rect id="elp70uqct30h9" x="320.6" y="349.7" class="st3" width="5.7" height="2.1"/>
	<rect id="el9ysu2tgmcu" x="320.6" y="355.3" class="st3" width="5.7" height="2.1"/>
	<path id="elz3zzmtkam1p" class="st4" d="M324.1,321.8c0.2,0.2,0.2,0.5,0,0.7c-0.2,0.2-0.5,0.2-0.7,0l-2.2-2.2c0,0,0,0,0,0l0,0
		c0,0,0,0,0-0.1l0,0c0,0,0,0,0,0s0,0,0,0V320c0,0,0,0,0,0s0,0,0,0l0,0l0,0v-0.1l0,0c0,0,0-0.1,0-0.1s0,0,0,0s0,0,0,0l2.2-2.2
		c0.2-0.2,0.5-0.2,0.7,0c0.2,0.2,0.2,0.5,0,0.7l-1.9,1.9L324.1,321.8z"/>
	<path id="elji9h5rizukm" class="st4" d="M326.1,322.1l1.9-4.6c0.1-0.2,0.3-0.4,0.5-0.3c0.2,0.1,0.4,0.3,0.3,0.5c0,0,0,0.1,0,0.1
		l-1.9,4.6c-0.1,0.2-0.2,0.3-0.4,0.3c0,0-0.1,0-0.1,0C326.2,322.6,326,322.3,326.1,322.1C326.1,322.1,326.1,322.1,326.1,322.1z"/>
	<path id="elnivr9zqn3as" class="st4" d="M332.7,320.2L332.7,320.2L332.7,320.2l-2.3,2.3c-0.1,0.1-0.2,0.1-0.4,0.1
		c-0.1,0-0.3-0.1-0.4-0.1c-0.2-0.2-0.2-0.5,0-0.7l1.9-1.9l-1.9-1.9c-0.2-0.2-0.2-0.5,0-0.7c0.2-0.2,0.5-0.2,0.7,0l2.2,2.2
		c0,0,0,0,0.1,0l0,0c0,0,0,0,0,0.1l0,0c0,0,0,0,0,0.1v0.1l0,0v0.1c0,0,0,0.1,0,0.1l0,0C332.7,320,332.7,320.2,332.7,320.2z"/>
	<path id="el10teg6fjdv2o" class="st4" d="M317.4,300.7c0,1-0.8,1.8-1.8,1.8s-1.8-0.8-1.8-1.8s0.8-1.8,1.8-1.8l0,0
		C316.6,298.9,317.4,299.7,317.4,300.7z"/>
	<path id="elf6s6t2rxdwg" class="st19" d="M324.8,300.7c0,1-0.8,1.8-1.8,1.8c-1,0-1.8-0.8-1.8-1.8c0-1,0.8-1.8,1.8-1.8c0,0,0,0,0,0
		C324,298.9,324.8,299.7,324.8,300.7z"/>
	<path id="elymldaycvw6" class="st6" d="M332.1,300.7c0,1-0.8,1.8-1.8,1.8s-1.8-0.8-1.8-1.8s0.8-1.8,1.8-1.8l0,0
		C331.3,298.9,332.1,299.7,332.1,300.7z"/>
</g>
<g id="freepik--speech-bubble--inject-386" class="st0">
	<path id="el2tczvfwohkv" class="st20" d="M198.4,229.4c-1.5-2.2-2.3-4.8-2.3-7.5c0-9.5,10.4-17.2,23.3-17.2s23.3,7.7,23.3,17.2
		s-10.4,17.2-23.3,17.2c-5.7,0.1-11.3-1.6-16.1-4.8l-8,2L198.4,229.4z"/>
	<path id="elp62cvun744" class="st5" d="M198.4,229.4c-3-4.3-3.3-9.9-0.6-14.4c1.3-2.2,3-4.1,5.1-5.6c2.1-1.5,4.4-2.7,6.8-3.5
		c2.4-0.8,4.9-1.3,7.5-1.5c2.5-0.2,5.1,0,7.6,0.4c2.5,0.4,5,1.2,7.3,2.3c2.3,1.1,4.5,2.6,6.3,4.4c1.9,1.8,3.3,4.1,4.1,6.5
		c0.8,2.5,0.8,5.2,0.1,7.7c-0.8,2.5-2.1,4.8-4,6.6c-1.8,1.8-3.9,3.3-6.3,4.4c-4.7,2.2-9.8,3.1-14.9,2.7c-5.1-0.3-10.1-2-14.3-4.9
		h0.2l-8.1,1.9l-0.2,0.1l0.1-0.2L198.4,229.4z M198.4,229.4l-3,7l-0.1-0.2l8-2.1h0.1l0.1,0.1c4.2,2.8,9,4.3,14.1,4.5
		c2.5,0.1,5,0,7.4-0.5c2.4-0.4,4.8-1.2,7.1-2.3c2.2-1.1,4.3-2.5,6-4.3c1.7-1.7,3-3.9,3.7-6.2c0.7-2.3,0.6-4.8-0.1-7.2
		c-0.8-2.3-2.1-4.4-3.8-6.2c-1.7-1.7-3.8-3.2-6-4.2c-2.2-1.1-4.6-1.8-7.1-2.2c-4.9-0.9-10-0.5-14.8,0.9c-4.8,1.4-9,4.5-11.8,8.7
		c-1.3,2.1-2,4.6-2,7.1C196.3,224.8,197,227.2,198.4,229.4z"/>
	<path id="ely4uepb27ti9" class="st4" d="M212.1,226.5c0.5,0.5,0.5,1.3,0,1.8c-0.2,0.2-0.5,0.3-0.9,0.4c-0.3,0-0.6-0.1-0.9-0.4
		l-5.5-5.5c-0.1,0-0.1-0.1-0.1-0.1c0,0,0,0-0.1,0c0,0,0-0.1-0.1-0.1c0,0-0.1,0-0.1-0.1c0,0,0-0.1,0-0.1s0-0.1,0-0.1V222
		c0,0,0-0.1,0-0.1s0-0.1,0-0.1v-0.1c0,0,0-0.1,0-0.1s0-0.1,0-0.1s0,0,0,0c0-0.1,0.1-0.1,0.1-0.2l0,0c0-0.1,0.1-0.1,0.1-0.1l5.5-5.5
		c0.5-0.5,1.3-0.5,1.8,0c0.5,0.5,0.5,1.3,0,1.8l-4.6,4.6L212.1,226.5z"/>
	<path id="elrykn8pvahu" class="st4" d="M217.1,227.1l4.8-11.3c0.2-0.5,0.9-0.8,1.4-0.6c0,0,0,0,0,0c0.5,0.2,0.8,0.8,0.6,1.3
		c0,0,0,0.1,0,0.1l-4.8,11.4c-0.2,0.4-0.6,0.6-1,0.6c-0.1,0-0.3,0-0.4-0.1c-0.5-0.2-0.8-0.7-0.6-1.3
		C217,227.2,217.1,227.2,217.1,227.1z"/>
	<path id="elqhy8iujixt" class="st4" d="M233.2,222.6L233.2,222.6c0,0.1-0.1,0.1-0.1,0.1l-5.5,5.5c-0.5,0.5-1.3,0.5-1.7,0
		c-0.5-0.5-0.5-1.3,0-1.7c0,0,0,0,0,0l4.6-4.6l-4.6-4.6c-0.5-0.5-0.5-1.3,0-1.7c0,0,0,0,0,0c0.5-0.5,1.3-0.5,1.7,0l5.5,5.5
		c0.1,0,0.1,0.1,0.1,0.1l0,0c0,0,0.1,0.1,0.1,0.2s0,0,0,0c0,0.1,0,0.1,0.1,0.2c0,0,0,0,0,0.1v0.1c0,0,0,0.1,0,0.1s0,0.1,0,0.1v0.1
		l0,0c0,0.1,0,0.1-0.1,0.2c0,0,0,0,0,0.1C233.3,222.3,233.2,222.5,233.2,222.6z"/>
</g>
<g id="freepik--Character--inject-386" class="st0">
	<polygon id="el8htpadx744o" class="st21" points="145.7,412.9 80.2,465.7 83.8,465.7 159.6,412.9 	"/>
	<polygon id="el4nzdvd8aa7c" class="st21" points="151.9,412.9 119.5,465.7 123.2,465.7 162.9,412.9 	"/>
	<polygon id="el2n16bnz4ehl" class="st21" points="167.8,412.9 200.2,465.7 196.5,465.7 156.8,412.9 	"/>
	<polygon id="ellzqxgh8e1n" class="st21" points="173.4,412.9 239,465.7 235.3,465.7 159.6,412.9 	"/>
	<polygon id="elnuaimcapk8" class="st6" points="282.9,393.5 282.9,378 192.8,374.3 145.3,247.3 36.3,247.3 74.8,393.5 167,419.3 
		172.8,419.3 	"/>
	<g id="el0xl5japal56k" class="st1">
		<polygon id="elyvq6hnxox5j" class="st12" points="36.3,247.3 48.8,247.3 88.9,380.5 170.4,403.6 282.9,378 282.9,393.5 
			172.8,419.3 167,419.3 74.8,393.5 		"/>
	</g>
	<path id="elfs78bv77af" class="st22" d="M89.7,410c0.6-2.3,37.3-58.8,40-60c0.3-0.1,19.3,11.5,19.3,11.5c0.8,1,34.7-8.8,34.7-8.8
		l3.3,41.5l-62.8,3.1c0,0-8.1,5.6-15.6,10.2l0,0c-3.2,2.1-6.4,4-9.8,5.7C95.8,414.2,89.1,412.4,89.7,410z"/>
	<path id="el0on7wvyjw1tp" class="st19" d="M98.8,413.2c3.4-1.7,6.7-3.6,9.8-5.7l0,0c7.4-4.6,15.6-10.2,15.6-10.2l14-0.7l19.3-36.8
		c-4.7,1.2-8.3,2-8.5,1.6c0,0-19-11.6-19.3-11.4c-2.7,1.2-39.4,57.6-40,60S95.8,414.2,98.8,413.2z"/>
	<path id="eldrtxscrti7i" class="st4" d="M89.4,410.1c0.6-2.4,37.5-58.8,40.3-60.1c1-0.5,10.3,4.4,19.4,11.4l-23.8,36.3
		c0,0-23.3,14.6-26.5,15.6S88.7,412.5,89.4,410.1z"/>
	<path id="elh4fa9n86kgf" class="st5" d="M92.1,410.8c6.4-9.3,31.4-47.4,37-57.1c0.1-0.1,0-0.1-0.1,0c-6.6,9.1-31.2,47.4-37.1,57
		C91.9,410.9,92,411,92.1,410.8z"/>
	<path id="elz8f82epeir" class="st5" d="M103.1,411.1c1.4-2.1,1.9-4.7,1.4-7.1c-0.5-2.2-1.8-4.1-3.7-5.4c-0.1,0-0.1,0.1-0.1,0.1
		c3.4,3.2,4.3,8.2,2.2,12.4C103,411.1,103,411.2,103.1,411.1C103.1,411.2,103.1,411.2,103.1,411.1z"/>
	<path id="elhux7djdn166" class="st5" d="M122.3,400.2c2.5-3.8,4-9,2.5-13.4c-0.1-0.2-0.3-0.1-0.3,0.1c-0.4,4.4-1.3,8.8-2.7,13.1
		c0,0.2,0.1,0.3,0.2,0.3C122.2,400.3,122.3,400.3,122.3,400.2z"/>
	<path id="el0kp0jtk2ws1g" class="st5" d="M119.3,402.4c2.5-3.8,4.1-9,2.5-13.4c-0.1-0.2-0.3-0.1-0.3,0.1c-0.4,4.4-1.3,8.8-2.7,13.1
		c0,0.2,0.1,0.3,0.2,0.3C119.1,402.5,119.2,402.4,119.3,402.4z"/>
	<path id="elsrlmb4txzia" class="st5" d="M116.2,404.5c2.5-3.8,4.1-9,2.5-13.4c-0.1-0.2-0.3-0.1-0.3,0.1c-0.4,4.4-1.3,8.8-2.7,13.1
		c0,0.2,0.1,0.3,0.2,0.3C116.1,404.6,116.2,404.6,116.2,404.5z"/>
	<path id="elxcjbactsed" class="st5" d="M113.2,406.7c2.5-3.8,4.1-9,2.5-13.4c-0.1-0.2-0.3-0.1-0.3,0.1c-0.4,4.4-1.3,8.8-2.7,13.1
		c0,0.2,0.1,0.3,0.2,0.3C113,406.8,113.1,406.8,113.2,406.7z"/>
	<path id="eljdd335ka4gt" class="st5" d="M136.6,362c2.8-4.2-3.9-8.6-6.6-4.3S133.8,366.2,136.6,362z"/>
	<path id="elixgione9u8e" class="st5" d="M129.8,410.9c2.8-0.9,2.9-4.3,2-6.6c-1.6-3.9-4.1-7.2-7.4-9.8c-0.1,0-0.1,0-0.2,0
		c0,0,0,0,0,0c-0.3-0.1-0.6,0-0.7,0.3c0,0.1,0,0.1,0,0.2c0.1,3.9-0.3,8.1,1,11.9C125.2,409.1,127.1,411.7,129.8,410.9z M124.8,401
		c-0.1-1.9-0.1-3.8-0.3-5.8c1.4,1.9,3,3.8,4.2,5.8c0.6,1,1.2,2,1.6,3c0.7,1.6,1.4,7.4-2.9,5.1C125,407.9,124.9,403.2,124.8,401
		L124.8,401z"/>
	<path id="ellm8ivzr92ef" class="st5" d="M129.1,384.2c-2.7,3-3.9,7-5.6,10.5c-0.1,0.3,0,0.6,0.3,0.7c0.1,0,0.1,0,0.2,0
		c0,0.1,0,0.1,0.1,0.1c0,0,0,0,0,0c4-1.1,7.7-3.2,10.6-6.1c1.7-1.7,3-4.9,0.7-6.8S130.6,382.5,129.1,384.2z M132.7,383.3
		c4.9-0.4,2,4.6,0.7,5.8c-0.9,0.8-1.8,1.5-2.7,2.2c-1.9,1.4-4.1,2.5-6.1,3.7c0.9-1.7,1.7-3.5,2.5-5.2
		C128,387.8,130,383.6,132.7,383.3z"/>
	<path id="elylj0073a6y" class="st5" d="M173.2,344c0,0,52.6-24.5,76.2-24.4c28,0.1,50,33.3,15.8,57.5c-30.2,21.4-126,20.5-126,20.5
		l22.1-40.3c19.6-7,40.2-11,61-11.7l-48.2,10.1L173.2,344z"/>
	<path id="eliq4ldhnnfh" class="st23" d="M174.2,352c4.1-1.1,8.4-1.8,12.6-2.6s8.5-1.5,12.7-2.2c8.5-1.3,17-2.3,25.6-2.8l2.4-0.1
		c0.2-0.1,0.3-0.1,0.5-0.2c0.4-0.1,0.8-0.3,1.2-0.4c0.8-0.2,1.5-0.4,2.3-0.5c1.6-0.4,3.2-0.6,4.8-1.1c0.1,0,0.1,0.1,0.1,0.1
		c-1.6,0.5-3.2,1.1-4.8,1.5l-1.4,0.4c3.1-0.1,6.3,0,9.5,0c0.1,0,0.1,0.2,0,0.2c-4.3,0-8.6,0.3-12.9,0.7s-8.5,0.8-12.7,1.3
		c-8.5,1.1-17,2.5-25.5,4c-4.8,0.9-9.5,1.8-14.3,2.3C173.9,352.8,173.8,352.1,174.2,352z"/>
	<path id="elup24ff8foug" class="st23" d="M149,395.6c1.4-2.6,2.5-5.3,3.7-7.9s2.4-5.3,3.7-7.9c2.5-5.3,11.4-23,12.3-24.2
		c0,0,0.1,0,0.1,0c0,0,0,0,0,0.1c-0.4,1.4-5.9,13.1-7.2,15.7c-2.5,5.2-5.2,10.4-7.9,15.5c-0.8,1.5-1.6,2.9-2.3,4.4s-1.6,2.9-2.3,4.4
		C149.1,395.8,148.9,395.7,149,395.6z"/>
	<path id="els95bwurcimp" class="st22" d="M273.7,408.7c-0.7-2.3-40-56.9-42.8-58c-0.3-0.1-18.8,12.3-18.8,12.3
		c-0.8,1-35.1-7.1-35.1-7.1l-1.3,41.6l62.9,0.1c0,0,8.4,5.2,16,9.4l0,0c3.3,1.9,6.6,3.7,10.1,5.2C267.9,413.2,274.5,411,273.7,408.7
		z"/>
	<path id="eljx7j37og0s" class="st19" d="M264.8,412.3c-3.5-1.5-6.8-3.3-10.1-5.2l0,0c-7.7-4.2-16-9.4-16-9.4h-14l-21.1-35.8
		c4.8,1,8.4,1.6,8.6,1.2c0,0,18.4-12.5,18.8-12.3c2.8,1.1,42.1,55.7,42.8,58S267.9,413.2,264.8,412.3z"/>
	<path id="elhdwjcm9l7xq" class="st4" d="M274.1,408.8c-0.7-2.4-40.2-56.9-43.1-58.1c-1.1-0.4-10.1,4.8-18.8,12.3l25.5,35.2
		c0,0,24,13.4,27.2,14.4S274.8,411.2,274.1,408.8z"/>
	<path id="elss3d4sf6fx" class="st5" d="M271.4,409.6c-6.9-9-33.6-45.9-39.7-55.3c0-0.1,0-0.1,0.1,0c7,8.8,33.5,45.9,39.8,55.2
		C271.6,409.7,271.5,409.8,271.4,409.6z"/>
	<path id="elwbvfqbui8yr" class="st5" d="M260.4,410.5c-1.5-2-2.2-4.6-1.7-7.1c0.4-2.2,1.6-4.2,3.4-5.6c0.1,0,0.1,0.1,0.1,0.1
		c-3.3,3.3-3.9,8.4-1.6,12.5C260.6,410.5,260.5,410.6,260.4,410.5z"/>
	<path id="elcm3s2e39sll" class="st5" d="M240.7,400.4c-2.7-3.6-4.5-8.8-3.1-13.2c0.1-0.2,0.3-0.1,0.3,0.1c0.6,4.4,1.8,8.7,3.3,12.9
		c0.1,0.1,0,0.3-0.2,0.4C240.9,400.6,240.8,400.5,240.7,400.4z"/>
	<path id="eldie6y53fn7a" class="st5" d="M243.9,402.5c-2.7-3.6-4.5-8.8-3.1-13.2c0-0.2,0.3-0.1,0.3,0.1c0.6,4.4,1.8,8.7,3.3,12.9
		c0.1,0.1,0,0.3-0.2,0.4C244.1,402.6,243.9,402.6,243.9,402.5z"/>
	<path id="elmacny98qg1p" class="st5" d="M247,404.5c-2.7-3.6-4.5-8.8-3.1-13.2c0-0.2,0.3-0.1,0.3,0c0.6,4.4,1.7,8.8,3.3,12.9
		c0,0.2-0.1,0.3-0.2,0.4C247.2,404.6,247.1,404.6,247,404.5z"/>
	<path id="eljdmo8lg9ap" class="st5" d="M250.1,406.5c-2.7-3.6-4.5-8.8-3.1-13.2c0.1-0.2,0.3-0.1,0.3,0c0.6,4.4,1.8,8.8,3.3,12.9
		c0,0.2,0,0.3-0.2,0.4C250.3,406.6,250.2,406.6,250.1,406.5z"/>
	<path id="ela1vwucat5sv" class="st5" d="M224.6,363c-3-4.1,3.4-8.7,6.4-4.6S227.6,367.1,224.6,363z"/>
	<path id="eldeaa31j7fim" class="st5" d="M239,407.3c1.1-3.8,0.5-8,0.5-11.9c0-0.3-0.3-0.5-0.6-0.5c-0.1,0-0.1,0-0.2,0
		c0-0.1-0.1-0.1-0.2,0c-3.2,2.7-5.6,6.2-7,10.1c-0.8,2.3-0.6,5.7,2.3,6.5C236.5,412.2,238.3,409.5,239,407.3z M236,409.6
		c-4.2,2.5-3.8-3.3-3.2-5c0.4-1.1,0.9-2.1,1.5-3.1c1.1-2.1,2.6-4,3.9-6c-0.1,1.9,0,3.8,0,5.8C238.3,403.6,238.4,408.3,236,409.6z"/>
	<path id="elaf0iflceru" class="st5" d="M226.7,383.6c-2.2,2-0.7,5.1,1,6.8c3.1,2.8,6.8,4.7,10.9,5.6c0.1,0,0.1,0,0.1-0.1
		c0,0,0,0,0,0c0.3,0,0.5-0.3,0.5-0.6c0-0.1,0-0.1,0-0.2c-1.8-3.5-3.3-7.4-6.1-10.3C231.6,383.2,228.8,381.7,226.7,383.6z
		 M235.5,390.3c0.9,1.7,1.8,3.4,2.7,5.1c-2.1-1.1-4.3-2.1-6.3-3.4c-1-0.6-1.9-1.3-2.8-2c-1.4-1.2-4.5-6.1,0.4-5.9
		C232.2,384.2,234.4,388.3,235.5,390.3L235.5,390.3z"/>
	<path id="el8csnbfx8dox" class="st5" d="M175.5,343.1c0,0-53.2-16-81.7-12.6c-27.8,3.3-39.3,38.2-12.1,57.1
		c29.6,20.6,141.2,13.4,141.2,13.4l-23.8-42.6c0,0-38-8.9-72.6-8.6l48.7,7.8L175.5,343.1z"/>
	<path id="elyxejhn7o02b" class="st23" d="M200.7,361.2c0-0.1,0-0.1-0.1-0.2c0-0.1,0-0.1,0-0.2s-0.1-0.3-0.1-0.4
		c-0.1-0.3-0.2-0.6-0.3-0.8c-0.1-0.3-0.2-0.6-0.3-0.8c-0.1-0.3-0.3-0.5-0.4-0.8h-0.1l0,0h-0.1c0,0,0,0-0.1,0
		c-4.2-0.9-32.6-5.6-36.8-6.2s-8.5-1.1-12.8-1.5c-8.5-0.9-17.1-1.5-25.7-1.5h-2.4c-0.2-0.1-0.4-0.1-0.5-0.1
		c-0.4-0.1-0.8-0.2-1.2-0.3c-0.8-0.2-1.6-0.3-2.3-0.4c-1.6-0.3-3.2-0.5-4.8-0.8c-0.1,0-0.1,0.1,0,0.1c1.6,0.4,3.2,0.9,4.8,1.3
		l1.4,0.3c-3.2,0.1-6.3,0.3-9.4,0.5c-0.1,0-0.1,0.2,0,0.1c4.3-0.1,8.6-0.1,12.9,0.1s8.5,0.4,12.7,0.7c8.6,0.7,17.1,1.7,25.7,2.8
		c4.8,0.6,33.8,5.5,38.6,5.9c0,0,0,0,0.1,0c0,0.1,0.1,0.2,0.1,0.3c0.1,0.3,0.2,0.5,0.4,0.8s0.3,0.5,0.4,0.7s0.1,0.2,0.2,0.4l0.1,0.2
		c0,0,0.1,0.1,0.1,0.2S200.7,361.3,200.7,361.2z"/>
	<path id="elgdh4zwgb8et" class="st23" d="M214,398.3c-1.5-2.5-2.7-5.1-4.1-7.7s-2.7-5.1-4.1-7.7c-2.7-5.1-12.4-22.4-13.4-23.6
		c-0.1-0.1-0.2,0-0.2,0.1c0.4,1.3,6.5,12.8,7.9,15.3c2.8,5.1,5.7,10.1,8.6,15.1c0.8,1.4,1.7,2.9,2.5,4.3s1.7,2.8,2.5,4.3
		C213.9,398.5,214.1,398.4,214,398.3z"/>
	<path id="elzoezr8ul3yh" class="st5" d="M161.3,227.6c-8.6,5.2-13.3,16-13.3,16s-9.4,9.8-9,16.4c0.1,3.8,2.1,7.3,5.3,9.4l0.2-3.6
		c0,0,1.2,4.9,8.1,8.5s17.4,3.6,23.1,2.3c3.4-0.8,6.5-2.4,9.1-4.8l-3.1,4.5c0,0,7.3,1.5,13.4-5.1s-3.5-20.6-3.9-23.2
		s2.4-20.2-16.5-21.6C174.6,226.3,167.2,224,161.3,227.6z"/>
	<path id="elg94aa3roqr" class="st5" d="M141.8,268.3c-1.8-1.7-3.1-3.8-3.6-6.2c-0.6-2.3-0.5-4.8,0.5-7.1c1.2-2.7,3.2-4.8,5.3-6.9
		s4.3-4.1,6.4-6.3c0.1-0.1-0.1-0.3-0.2-0.2c-2.1,1.5-4.1,3.1-6,4.9c-1.9,1.5-3.5,3.3-5,5.2c-1.4,1.8-2.2,3.9-2.4,6.2
		c-0.1,1.8,0.3,3.7,1.1,5.3c1,1.9,2.3,3.6,3.8,5.1C141.8,268.5,141.9,268.4,141.8,268.3z"/>
	<path id="el210k11l56ep" class="st5" d="M198.5,263.7c-0.6-6.9-5.4-12.3-7.5-18.7c-1.2-3.5-1.8-7.1-3.6-10.3c0-0.1-0.2,0-0.2,0.1
		c1.4,2.8,1.9,5.9,2.7,9c0.9,3,2.1,6,3.6,8.8c2.6,5.2,5.6,11.4,3.4,17.2c-1.1,2.7-3.4,5.4-6.5,5.6c-0.1,0-0.1,0.2,0,0.2
		c2.5-0.4,4.7-1.7,6.2-3.8C198.2,269.3,198.9,266.5,198.5,263.7z"/>
	<path id="el01uz7u5xzknx" class="st5" d="M198.4,265.5c0.8-2.4,0.8-4.9,0.1-7.3c-0.9-2.3-2.2-4.4-4-6.1c-1.9-2.1-4-4.1-4.8-6.8
		c0-0.1-0.2-0.1-0.2,0.1c1.3,4.5,5.2,7.4,7.4,11.4c2.4,4.6,1.1,10.2-2.2,14c-2.1,2.3-4.7,4-7.7,5.1c0,0,0,0.1,0,0.1
		C191.9,274.1,196.8,270.7,198.4,265.5z"/>
	<path id="elmgudf9a3rkp" class="st22" d="M157.5,283.2c7,19.8,19.5,43.1,24.1,46.6c5.8,4.4,37.3,8,39,8c4.3-0.1,7.6-29,2.9-29.1
		c-7-0.2-26.4,0.1-28.1-1.2s-13.9-13.6-26.6-27.5C160.1,270.4,153.2,270.9,157.5,283.2z"/>
	<path id="el8dm17b4oi29" class="st22" d="M219,337.8c4,1.5,8,2.7,12.1,3.6c3.3,0.5,12.7,1.9,13.7-1.6c0.7-2.4-4.8-3.9-8.6-5
		c-2-0.6-4.6-2.3-4.2-3.6c0.8-2.3,6-0.7,9.5,0.8c6.8,3,16,8.6,19.4,4.9c1.3-1.4-0.6-3.4-3.4-5.3c4.3,2.1,8.9,3.6,10.4,2.2
		c0.8-0.8,0.9-2.1,0.1-2.9c1.1,0.4,2.3,0,3-0.8c1.2-1.5,0.3-3.5-1.4-5.4c0.5-0.1,0.9-0.5,1.1-0.9c2.3-4.5-13-15.1-17.9-15.7
		c-9.8-1-19.6-0.8-29.3,0.6C218.6,313.7,219,337.8,219,337.8z"/>
	<path id="el5wmwbs9dvqi" class="st5" d="M238.3,322.4c3.4,0.1,6.8,1,9.8,2.5c3.9,2,6.6,4.4,9.9,6.9c0.1,0.1,0,0.2-0.1,0.1
		c-1.6-1.2-8.1-5.5-9.8-6.4C245.1,323.8,241.8,322.7,238.3,322.4C238.3,322.5,238.2,322.4,238.3,322.4z"/>
	<path id="elb14wdohx7b5" class="st5" d="M240.2,316.1c3.9,0.5,7.7,1.3,11.4,2.5c4,1.5,7.3,4.3,10.5,7c2,1.6,3.9,3.3,5.7,5
		c0.1,0.1,0,0.2-0.1,0.1c-3.3-2.8-6.7-5.4-10.2-8c-3.2-2.4-6.8-4.2-10.7-5.1c-2.2-0.6-4.5-1-6.7-1.4
		C240.2,316.2,240.2,316.1,240.2,316.1z"/>
	<path id="el9z84bf1si3p" class="st5" d="M243.6,310.4c3.7,0.3,6.9,0.6,10.3,2.2c3.9,2,7.5,4.4,10.7,7.3c1.8,1.5,3.5,3.1,5.2,4.7
		c0.1,0.1,0,0.2-0.1,0.1c-3.9-3.5-8-6.7-12.3-9.6c-2-1.4-4.3-2.5-6.6-3.3C248.5,311.1,246,310.7,243.6,310.4
		C243.6,310.4,243.6,310.4,243.6,310.4z"/>
	<path id="el7iitvnyj42f" class="st4" d="M223.5,306.5l-6.8,34.9c0,0-29.7-4.9-35.7-10s-19-33.3-23.5-47.1s2.7-14.3,10.4-6.1
		s26.6,28,27.5,28.4S223.5,306.5,223.5,306.5z"/>
	<path id="elvk5szyzoy" class="st19" d="M210.9,327.9c-0.3,0.2-0.6,0.4-0.9,0.4c-0.6,0.1-1.2-0.1-1.6-0.5c-0.7-0.7-1.7-0.8-2.6-0.4
		c-0.4,0.2-0.7,0.5-0.9,0.8c-0.2,0.3-0.4,0.6-0.6,1c0.3-0.2,0.6-0.4,1-0.6c0.3-0.2,0.6-0.4,0.9-0.5c0.6-0.2,1.2,0,1.6,0.4
		c0.7,0.7,1.7,0.9,2.5,0.5c0.4-0.2,0.8-0.4,1-0.8c0.2-0.3,0.4-0.6,0.6-1C211.5,327.5,211.2,327.7,210.9,327.9z M181.2,313
		c-0.3,0.2-0.6,0.4-0.9,0.4c-0.6,0.1-1.2-0.1-1.6-0.5c-0.7-0.7-1.7-0.8-2.6-0.4c-0.4,0.2-0.8,0.5-1,0.8c-0.2,0.3-0.4,0.6-0.6,1
		c0.3-0.2,0.6-0.4,1-0.6c0.3-0.2,0.6-0.4,0.9-0.5c0.6-0.2,1.2,0,1.6,0.4c0.7,0.7,1.7,0.9,2.5,0.5c0.4-0.2,0.8-0.4,1-0.8
		c0.2-0.3,0.4-0.6,0.6-1C181.8,312.5,181.5,312.8,181.2,313z M158,276.5c-0.3,0.2-0.6,0.4-0.9,0.4c-0.3,0.1-0.6,0.1-0.9,0
		c0,0.3,0,0.6,0,0.9c0.8,0.1,1.6-0.3,2.1-1c0.2-0.3,0.4-0.6,0.6-1C158.6,276,158.3,276.3,158,276.5z M206.5,311.1
		c-0.3,0-0.7-0.1-0.9-0.3c-0.5-0.3-0.8-0.9-0.8-1.5c0-0.9-0.6-1.8-1.5-2.1c-0.4-0.1-0.8-0.2-1.2-0.1c-0.4,0.1-0.8,0.1-1.1,0.2
		c0.4,0.1,0.8,0.1,1.1,0.2c0.4,0,0.7,0.1,1,0.3c0.5,0.3,0.8,0.9,0.9,1.5c0,0.9,0.5,1.8,1.4,2.1c0.4,0.2,0.8,0.2,1.3,0.1
		c0.4-0.1,0.8-0.1,1.1-0.2C207.2,311.3,206.8,311.2,206.5,311.1L206.5,311.1z M178.1,293.5c-0.3,0-0.6-0.1-0.9-0.3
		c-0.5-0.3-0.8-0.9-0.8-1.5c0-0.9-0.6-1.8-1.5-2.1c-0.4-0.1-0.8-0.2-1.3-0.1c-0.4,0.1-0.8,0.1-1.1,0.2c0.4,0.1,0.8,0.1,1.1,0.2
		c0.4,0,0.7,0.1,1,0.3c0.5,0.3,0.8,0.9,0.9,1.5c0,0.9,0.6,1.8,1.4,2.1c0.4,0.2,0.8,0.2,1.3,0.1c0.4-0.1,0.8-0.1,1.1-0.2
		C178.8,293.6,178.5,293.6,178.1,293.5L178.1,293.5z M184,332.1c-0.4-0.1-0.8-0.2-1.2-0.1l-0.7,0.1l-0.4,0.1
		c0.3,0.1,0.6,0.1,0.9,0.2c0.1,0,0.1,0,0.2,0c0.3,0,0.7,0.1,0.9,0.3c0.2,0.1,0.4,0.3,0.6,0.5c0.4,0.2,0.8,0.3,1.2,0.5
		C185.3,333,184.7,332.4,184,332.1z"/>
	<path id="elp9s7gezavk" class="st5" d="M212.3,326.8c0.8-4.1,1.7-8.2,2.4-12.4c0.4-2.4,0.8-4.7,1.1-7.1c0-0.1-0.1-0.1-0.2,0
		c-1,4.1-2,8.2-2.8,12.4s-1.6,8.2-2.4,12.4c-0.4,2.4-0.8,4.7-1.1,7.1c-0.4,3.5,0.1,0.1,0.1,0C210.6,335,211.4,330.9,212.3,326.8z"/>
	<g id="elhs2du6ygdcs" class="st1">
		<path id="el2rhgmrzmv5r" class="st12" d="M217.4,337.9l-0.7,3.5c0,0-29.8-4.9-35.7-10s-19-33.3-23.5-47.1
			c-3.3-10.1-0.3-13.1,4.5-10.8C176,289.4,202.3,319.6,217.4,337.9z"/>
	</g>
	<path id="el4z447b55yxx" class="st4" d="M117.4,342.2l69.3,1.2l-3.4-22.1c0,0,5.6-4.9,2.3-14.1c-2.1-6.1-11.9-20.3-16.8-26.2
		c-12-14.4-20.3-6.4-23.6-2.7C132.5,292.4,117.4,342.2,117.4,342.2z"/>
	<path id="el906shxz5p8e" class="st19" d="M185.1,332.9c-0.3-0.4-0.6-0.7-1.1-0.8c-0.4-0.1-0.8-0.2-1.2-0.1
		c-0.4,0.1-0.8,0.1-1.1,0.2c0.4,0.1,0.8,0.1,1.1,0.2c0.3,0,0.7,0.1,0.9,0.3c0.5,0.3,0.8,0.9,0.9,1.5c0,0.8,0.4,1.5,1,1.9
		L185.1,332.9z M136.7,292.6c-0.1,0-0.3,0-0.4-0.1c-0.1,0.2-0.2,0.4-0.3,0.6c0.2,0,0.4,0,0.7,0c0.4-0.1,0.8-0.1,1.1-0.2
		C137.5,292.8,137.1,292.7,136.7,292.6z M159.4,324.3c-0.3,0-0.6-0.1-0.9-0.3c-0.5-0.3-0.8-0.9-0.8-1.5c0-0.9-0.6-1.8-1.5-2.1
		c-0.4-0.1-0.8-0.2-1.3-0.1c-0.4,0.1-0.8,0.1-1.1,0.2c0.4,0.1,0.8,0.1,1.1,0.2c0.4,0,0.7,0.1,1,0.3c0.5,0.3,0.8,0.9,0.9,1.5
		c0,0.9,0.6,1.8,1.4,2.1c0.4,0.2,0.8,0.2,1.3,0.1c0.4-0.1,0.8-0.1,1.1-0.2C160.1,324.4,159.8,324.4,159.4,324.3z M177.9,293.5
		c-0.3,0-0.5-0.1-0.8-0.3c-0.5-0.3-0.8-0.9-0.8-1.5c0-0.3-0.1-0.5-0.2-0.8c-0.1-0.3-0.3-0.6-0.6-0.9c-0.2-0.2-0.5-0.4-0.7-0.5
		c-0.4-0.1-0.8-0.2-1.3-0.1c-0.4,0.1-0.8,0.1-1.1,0.2c0.4,0.1,0.8,0.1,1.1,0.2c0.4,0,0.7,0.1,1,0.3c0.5,0.3,0.8,0.9,0.9,1.5
		c0,0.9,0.6,1.8,1.4,2.1c0.4,0.2,0.8,0.2,1.3,0.1h0.1C178.1,293.8,178,293.6,177.9,293.5L177.9,293.5z M157.4,298.2
		c-0.1-0.4-0.1-0.8-0.2-1.1c-0.1,0.4-0.1,0.8-0.2,1.1c0,0.4-0.1,0.7-0.3,1c-0.3,0.5-0.9,0.9-1.5,0.9c-0.9,0-1.8,0.6-2.2,1.4
		c-0.2,0.4-0.2,0.8-0.1,1.3c0.1,0.4,0.1,0.8,0.2,1.1c0.1-0.4,0.1-0.8,0.2-1.1c0-0.3,0.1-0.7,0.3-0.9c0.3-0.5,0.9-0.8,1.5-0.8
		c1.2,0,2.3-1,2.3-2.2C157.4,298.6,157.4,298.4,157.4,298.2L157.4,298.2z M142.7,337.4c-0.1-0.4-0.1-0.8-0.2-1.1
		c-0.1,0.4-0.1,0.8-0.2,1.1c0,0.3-0.1,0.7-0.3,1c-0.3,0.5-0.9,0.9-1.5,0.9c-0.9,0-1.8,0.6-2.2,1.4c-0.2,0.4-0.2,0.8-0.1,1.3
		c0.1,0.2,0.1,0.4,0.1,0.7h0.2c0-0.2,0.1-0.4,0.1-0.7c0-0.3,0.1-0.7,0.3-0.9c0.3-0.5,0.9-0.8,1.5-0.8c0.9,0,1.8-0.6,2.1-1.5
		C142.7,338.3,142.7,337.8,142.7,337.4L142.7,337.4z M158,276.5c-0.3,0.2-0.6,0.4-0.9,0.4c-0.6,0.1-1.2-0.1-1.6-0.5
		c-0.7-0.7-1.7-0.8-2.6-0.4c-0.4,0.2-0.7,0.5-0.9,0.8c-0.2,0.3-0.4,0.6-0.6,1c0.3-0.2,0.6-0.4,1-0.6c0.3-0.2,0.5-0.4,0.9-0.5
		c0.6-0.2,1.2,0,1.6,0.4c0.7,0.7,1.7,0.9,2.5,0.5c0.4-0.2,0.8-0.4,1-0.8c0.2-0.3,0.4-0.6,0.6-1C158.6,276,158.3,276.3,158,276.5z
		 M137.3,317.2c-0.3,0.2-0.6,0.4-0.9,0.4c-0.6,0.1-1.2-0.1-1.6-0.5c-0.7-0.7-1.7-0.8-2.6-0.4c-0.4,0.2-0.7,0.5-0.9,0.8
		c-0.2,0.3-0.4,0.6-0.6,1c0.3-0.2,0.6-0.4,1-0.6c0.3-0.2,0.6-0.4,0.9-0.5c0.6-0.2,1.2,0,1.6,0.4c0.7,0.7,1.6,0.9,2.5,0.5
		c0.4-0.2,0.8-0.4,1-0.8c0.2-0.3,0.4-0.6,0.6-1C137.9,316.8,137.6,317,137.3,317.2L137.3,317.2z M181.2,313
		c-0.3,0.2-0.6,0.4-0.9,0.4c-0.6,0.1-1.2-0.1-1.6-0.5c-0.7-0.7-1.7-0.8-2.6-0.4c-0.4,0.2-0.8,0.5-1,0.8c-0.2,0.3-0.4,0.6-0.6,1
		c0.3-0.2,0.6-0.4,1-0.6c0.3-0.2,0.6-0.4,0.9-0.5c0.6-0.2,1.2,0,1.6,0.4c0.7,0.7,1.7,0.9,2.5,0.5c0.4-0.2,0.8-0.4,1-0.8
		c0.2-0.3,0.4-0.6,0.6-1C181.8,312.5,181.5,312.8,181.2,313z M164.9,342.6c-0.7-0.7-1.7-0.8-2.6-0.4c-0.4,0.2-0.7,0.4-0.9,0.8h0.9
		l0.3-0.1c0.4-0.1,0.8-0.1,1.2,0.1h1.6C165.3,342.9,165.1,342.8,164.9,342.6z M167.5,342.7c-0.2,0.1-0.4,0.2-0.6,0.3h0.9l0,0
		c0.2-0.3,0.4-0.6,0.6-1C168.1,342.3,167.8,342.5,167.5,342.7z"/>
	<path id="eldg4tbi3cat9" class="st5" d="M162.3,321c3-0.3,6-0.3,9.1-0.2c1.5,0.1,3,0.3,4.5,0.5c0.7,0.1,1.5,0.2,2.2,0.3
		c0.8,0.1,1.6,0.1,2.3,0c0,0,0.1,0,0.1,0.1c0,0,0,0-0.1,0c-0.7,0.2-1.5,0.3-2.2,0.4c-0.7,0.1-1.4,0.1-2.1,0c-1.5-0.1-3-0.2-4.6-0.4
		c-3.1-0.2-6.1-0.4-9.2-0.4C162.2,321.3,162.2,321,162.3,321z"/>
	<path id="elbajvxjeax7b" class="st5" d="M155.4,325c2.4-0.7,4.8-1.3,7.3-1.7c1.2-0.2,2.5-0.3,3.7-0.4c0.6,0,1.2-0.1,1.8-0.1
		s1.3,0,2,0c0.1,0,0.1,0.1,0,0.1c-0.6,0.1-1.2,0.2-1.8,0.3l-1.9,0.3c-1.2,0.2-2.4,0.4-3.7,0.6c-2.5,0.4-4.9,0.8-7.4,1.2
		C155.4,325.2,155.3,325,155.4,325z"/>
	<path id="eloeutdiwf7hk" class="st22" d="M153.6,275.1c0,1.3,3.7,10.9,9.4,12.1c1.9,0.4,4.5-9.6,4.5-9.6l0.4-0.7l5.1-9.8L162.9,256
		l-1.5-1.5c0,0-1.2,2.8-2.7,6.2c-0.1,0.2-0.1,0.3-0.2,0.5s-0.2,0.4-0.2,0.6c-0.2,0.5-0.5,1-0.7,1.6s-0.3,0.8-0.5,1.2l-0.5,1.3
		C155.4,268.8,154.4,271.9,153.6,275.1z"/>
	<path id="eltlgvnvnyfq" class="st5" d="M158.7,260.7c0.5,6.5,3.9,12.4,9.2,16.2l5.1-9.8L162.9,256l-1.5-1.5
		C161.4,254.5,160.2,257.3,158.7,260.7z"/>
	<path id="elwhkhif9mfe9" class="st22" d="M191.9,254.1c-2.2,19.2-13.9,20.1-18.1,19.6c-3.8-0.4-16.5-2.4-16.3-21.7
		s9.8-24.4,18.4-23.9S194.1,234.9,191.9,254.1z"/>
	<path id="el22k8fpba7s" class="st5" d="M189.6,250.5c-0.4-0.1-0.8-0.3-1.3-0.4c-0.5-0.1-0.9-0.3-1.2-0.7c-0.2-0.3-0.1-0.6,0.1-0.8
		c0.5-0.4,1.2-0.4,1.7-0.2c0.6,0.2,1.1,0.6,1.4,1.1c0.2,0.4,0.1,0.8-0.3,1C189.9,250.5,189.7,250.6,189.6,250.5z"/>
	<path id="elatl804425xm" class="st5" d="M176.4,248.1c0.4,0,0.9,0,1.3-0.1c0.5,0,0.9-0.1,1.3-0.4c0.2-0.2,0.3-0.6,0.1-0.8
		c-0.4-0.5-1-0.7-1.6-0.6c-0.6,0-1.2,0.2-1.7,0.7c-0.3,0.3-0.3,0.8,0,1C176.1,248,176.2,248.1,176.4,248.1z"/>
	<path id="elddqcs8mtstu" class="st5" d="M178.8,253.8c0-0.1-0.1,0.1-0.1,0.1c-0.1,1.3-0.4,2.8-1.7,3.1v0.1
		C178.5,257,178.9,255.1,178.8,253.8z"/>
	<path id="elzu4hlhtc8fc" class="st5" d="M177.8,252.3c-2.1-0.4-2.7,3.8-0.8,4.2S179.6,252.6,177.8,252.3z"/>
	<path id="eluetu1cevza9" class="st5" d="M177,252.4c-0.4,0.2-0.8,0.6-1.3,0.5s-0.8-0.5-1.1-1c0-0.1-0.1,0-0.1,0
		c-0.1,0.8,0,1.7,0.9,1.9s1.4-0.4,1.8-1.2C177.2,252.6,177.1,252.3,177,252.4z"/>
	<path id="elxuh1n7hk5ik" class="st5" d="M186.1,254.6c0,0,0.1,0.1,0.1,0.1c-0.2,1.3-0.3,2.8,0.8,3.4c0,0,0,0.1,0,0.1
		C185.6,257.8,185.7,255.8,186.1,254.6z"/>
	<path id="el96xomcc7vd" class="st5" d="M187.5,253.5c2.1,0.2,1.6,4.4-0.3,4.2S185.7,253.3,187.5,253.5z"/>
	<path id="el2vp840mfxsh" class="st5" d="M188.3,253.8c0.3,0.3,0.6,0.7,1,0.8s0.9-0.3,1.2-0.7c0,0,0.1,0,0.1,0.1
		c-0.1,0.8-0.4,1.6-1.2,1.7s-1.2-0.7-1.3-1.5C188.1,254,188.2,253.7,188.3,253.8z"/>
	<path id="elfwdia9u3e3d" class="st5" d="M177.1,264.5c0.2,0.4,0.5,0.8,0.9,1c0.5,0.1,1,0.1,1.4,0 M179.5,265.5
		c-0.5,0.4-1.2,0.6-1.8,0.4c-0.5-0.2-0.8-0.8-0.8-1.4c0-0.1,0.1-0.1,0.1-0.1L179.5,265.5z"/>
	<path id="elv9e1czglxai" class="st5" d="M183.2,260.5c0,0,0,2-0.1,2.9c0,0.1-0.2,0.1-0.6,0.1l0,0c-1.6,0.1-3.2-0.8-4-2.2
		c-0.1-0.1,0.1-0.2,0.1-0.1c1.1,1,2.4,1.6,3.8,1.7c0.1-0.2-0.1-3.4,0-3.4c0.7,0.2,1.4,0.4,2,0.8c0.1-4.1-0.4-8.3-0.2-12.4
		c0-0.1,0.1-0.1,0.2-0.1c0,0,0.1,0,0.1,0.1c0.7,4.4,1,8.9,0.8,13.3C185.3,261.7,183.5,260.7,183.2,260.5z"/>
	<path id="eli6yoex5mmz" class="st5" d="M182.4,263c-0.6,0.7-1.4,1.2-2.2,1.5c-0.5,0.2-1,0.2-1.5,0c-1-0.3-1-1.3-0.8-2.1
		c0.1-0.4,0.3-0.9,0.6-1.2C179.6,262.2,180.9,262.8,182.4,263z"/>
	<path id="eldj6yldcr9gc" class="st24" d="M180.2,264.5c-0.5,0.2-1,0.2-1.5,0c-1-0.3-1-1.3-0.8-2.1
		C179.1,262.5,180,263.4,180.2,264.5z"/>
	<path id="elnveh2hl4mj" class="st5" d="M157.6,254.4c2.7-0.8,4.8-2.9,5.5-5.7c3.6-0.9,6.9-2.7,9.6-5.3c-0.2,0.4-1.6,3.1-2.4,4.4
		c12.6-0.1,17.9-8.8,17.9-8.8c2,2.5,3.3,5.5,3.9,8.6c0,0,1.4-7.4-1.6-13.1c-1.9-4-5.8-6.6-10.2-6.9c-5.9-2.6-12.6-1.7-17.7,2.2
		C153.3,237.1,157.6,254.4,157.6,254.4z"/>
	<path id="eldv8roxdz54" class="st5" d="M179.9,247.4c-2.1,0.7-4.4,1.1-6.6,1.2l0,0c3.6-0.3,7-1.7,9.9-3.8c1.2-0.9,2.3-2,3.3-3.2
		c1.1-1.3,1.9-2.8,2.4-4.4c0,0,0-0.1,0.1-0.1c0,0,0.1,0,0.1,0.1c-0.3,1.6-0.9,3.2-1.8,4.6c-0.9,1.4-2.1,2.6-3.4,3.6
		C182.6,246.3,181.3,247,179.9,247.4L179.9,247.4z"/>
	<path id="eleh573uyc85o" class="st19" d="M175.1,260.2c-3.1-0.7-5.1-3.8-4.4-6.9s3.8-5.1,6.9-4.4c2.6,0.6,4.4,2.8,4.5,5.4l0,0
		c0.1,3.2-2.3,5.9-5.5,6c0,0,0,0,0,0C176,260.4,175.5,260.3,175.1,260.2z M177.3,249.7c-0.4-0.1-0.8-0.1-1.2-0.1
		c-2.8,0.1-4.9,2.4-4.8,5.2s2.4,4.9,5.2,4.8s4.9-2.4,4.8-5.2C181.2,252.1,179.6,250.2,177.3,249.7z"/>
	<path id="eloijbd0s1cd" class="st19" d="M188.2,261.4c-2.1-0.5-3.6-3.1-3.3-6.1c0.1-1.4,0.7-2.8,1.6-3.9c1.2-1.6,3.4-1.9,5-0.7
		c0.5,0.3,0.9,0.8,1.1,1.3c0.7,1.3,1,2.7,0.8,4.1c-0.3,3.2-2.5,5.5-4.8,5.3C188.5,261.5,188.3,261.4,188.2,261.4z M189.9,250.8
		c-0.1,0-0.2,0-0.3,0c-1-0.1-2,0.4-2.6,1.2c-0.8,1-1.3,2.2-1.4,3.4c-0.3,2.7,1.1,5.1,3,5.3s3.7-1.9,4-4.6c0.1-1.3-0.1-2.5-0.7-3.7
		C191.5,251.7,190.8,251.1,189.9,250.8z"/>
	<path id="elaocnpxhjy57" class="st19" d="M181.8,255l-0.4-0.6c0.9-0.6,3-1.4,4.3,0.2L185,255C183.9,253.6,181.9,255,181.8,255z"/>
	<path id="elvp9g0p39rtr" class="st19" d="M156.1,254l-0.6-0.4c0.2-0.3,1.9-2.9,3.7-3.1s11.8,1.9,12.2,1.9l-0.1,0.8
		c-2.9-0.6-10.8-2-12-1.9S156.6,253.3,156.1,254z"/>
	<path id="el52jpy2vkh6" class="st22" d="M156.4,258.6c0.3,0.2,0.5,0.3,0.8,0.4c0.3,0.1,0.6,0.2,0.9,0.2c0.4,0,0.8,0,1.2-0.1
		c0.3-0.1,0.6-0.2,0.8-0.4c0.4-0.2,0.7-0.6,0.9-0.9v-5.3c0,0-2.9-6.8-5.9-5.8S153.4,256.8,156.4,258.6z"/>
	<path id="elol1brmv5los" class="st5" d="M155.5,249.2C155.4,249.2,155.4,249.3,155.5,249.2c2,1.4,2.8,3.7,3.2,6
		c-0.3-0.9-1.4-1.4-2.3-1.1c-0.1,0-0.2,0.1-0.2,0.1c-0.1,0,0,0.1,0,0.1c0.8-0.1,1.6,0.4,2,1.1c0.3,0.6,0.5,1.3,0.7,2
		c0.1,0.2,0.4,0.2,0.4-0.1v-0.1C159.9,254.5,158.5,250.1,155.5,249.2z"/>
	<path id="eldudovmg3s3s" class="st22" d="M143.1,279.5c-11.4,10-40.8,49.5-33.6,58s52.5,2.6,65.5-2.1c3.9-1.4-7.9-25.8-12.1-26.8
		c-3.6-0.8-22.9,5.8-23.3,4.7s3.3-9.8,9.4-25.5C156,269.8,148.2,275.1,143.1,279.5z"/>
	<path id="el2ihfmwwfjbu" class="st22" d="M182,303c9.1-0.4,11.5,1,19-3.4c4.9-2.9,8.9-1,5.7,4.1c-5.2,8.2-16.8,11.1-21.2,11
		L182,303z"/>
	<path id="elr8uy38cskk" class="st22" d="M157.3,309.2c0,0,10.6-4.6,20.3-5.9c6.7-0.9,21.5-1.3,34,14.5c3,3.8,4.5,11.2-2.5,6.8
		c-5-3.1-7.3-6.6-10.5-7.8c0,0,0.9,9.7-3,12.5c-3.4,2.5-6.9,4.7-10.6,6.7c-0.5-0.6-1-1.2-1.4-1.9c0,0-3.9,2.3-10.6,1L157.3,309.2z"
		/>
	<path id="elpuzrjgwqqts" class="st22" d="M184.1,303.4c3,1.9,9.2,6.2,13,11.4c4.3,5.8,11,18.1,6.7,21.2c-3.2,2.3-6.1-2.2-6.1-2.2
		s1.7,5.7-1.6,7.1c-3,1.3-5.1-2.3-5.1-2.3s0.4,3.6-2.7,4.3c-3.8,0.9-4.1-6.9-8.7-9.3C178.6,333.2,184.1,303.4,184.1,303.4z"/>
	<path id="elu5lfyyr3j0o" class="st5" d="M190.3,318.3c4,4.2,6.6,9.6,7.5,15.4c0,0.1-0.1,0.2-0.1,0.1
		C195.8,328.4,193.3,323.2,190.3,318.3C190.2,318.4,190.3,318.3,190.3,318.3z"/>
	<path id="elnrqvfbn692h" class="st5" d="M184.6,322.9c1.9,2.2,6.1,9.2,6.6,15.8c0,0.1-0.1,0.2-0.1,0.1
		C189.4,333.2,187.3,327.9,184.6,322.9C184.5,322.9,184.5,322.8,184.6,322.9z"/>
	<path id="elgoac9izmp6o" class="st5" d="M198.5,316.7c2.8,1.2,4.6,2.8,6.9,4.8c1.1,1,2.3,1.9,3.5,2.8c1.1,0.8,2.8,1.9,4.2,1
		c0.7-0.6,1-1.5,0.8-2.3c-0.2-1.2-0.7-2.4-1.3-3.5c0,0,0.1-0.1,0.1,0c0.6,1,1.1,2,1.5,3.1c0.2,0.8,0.2,1.6,0,2.3
		c-0.6,1.6-2.5,1.6-3.8,1c-0.8-0.4-1.5-0.8-2.2-1.3c-0.7-0.5-1.3-1-1.9-1.5c-1.3-1.1-2.5-2.2-3.8-3.3
		C201.1,318.6,199.8,317.7,198.5,316.7C198.4,316.8,198.4,316.7,198.5,316.7C198.5,316.7,198.5,316.7,198.5,316.7z"/>
	<path id="el4slwpdjry29" class="st5" d="M203.6,327.6c-1.5-3.7-3.2-7.4-5.2-10.9 M198.5,316.7c2.4,3.2,4.3,6.7,5.8,10.4
		c0.8,2,1.2,4.2,1.2,6.4c-0.3,3.1-2.4,3.4-3.2,3.5c-0.9,0.1-1.8-0.2-2.6-0.7c-0.9-0.7-1.6-1.5-2.1-2.5c0,0,0-0.1,0.1-0.1
		c0.9,1.3,2.6,2.7,4.3,2.6c0.8,0,1.5-0.3,2-0.8c0.5-0.7,0.8-1.6,0.7-2.4c-0.1-1.9-0.4-3.8-1.1-5.6L198.5,316.7z"/>
	<path id="elhggoh2x86j" class="st4" d="M157.3,309.2l11.2,31.2c0,0-56.6,6.9-60.4-3.2s21.5-45.7,32.3-55.7
		c12.5-11.6,13.5-7.1,9.9,3.9c-3.8,11.6-10.5,28.1-10.5,28.1L157.3,309.2z"/>
	<path id="elflbo53lt8ei" class="st19" d="M136.7,292.6c-0.3,0-0.6-0.1-0.9-0.3c-0.5-0.3-0.8-0.9-0.8-1.5c0-0.9-0.6-1.7-1.4-2.1
		l-0.5,0.6h0.1c0.5,0.3,0.8,0.9,0.9,1.5c0,0.9,0.5,1.8,1.4,2.1c0.4,0.2,0.8,0.2,1.3,0.1c0.4-0.1,0.8-0.1,1.1-0.2
		C137.5,292.8,137.1,292.7,136.7,292.6z M159.4,324.3c-0.3,0-0.6-0.1-0.9-0.3c-0.5-0.3-0.8-0.9-0.8-1.5c0-0.9-0.6-1.8-1.5-2.1
		c-0.4-0.1-0.8-0.2-1.3-0.1c-0.4,0.1-0.8,0.1-1.1,0.2c0.4,0.1,0.8,0.1,1.1,0.2c0.4,0,0.7,0.1,1,0.3c0.5,0.3,0.8,0.9,0.9,1.5
		c0,0.9,0.6,1.8,1.4,2.1c0.4,0.2,0.8,0.2,1.3,0.1c0.4-0.1,0.8-0.1,1.1-0.2C160.1,324.4,159.8,324.4,159.4,324.3z M118.8,331
		c-0.3,0-0.7-0.1-0.9-0.3c-0.5-0.3-0.8-0.9-0.8-1.5c0-1.3-1.1-2.3-2.3-2.2c-0.1,0-0.3,0-0.4,0c-0.4,0.1-0.8,0.1-1.1,0.2
		c0.4,0.1,0.8,0.1,1.1,0.2c0.4,0,0.7,0.1,1,0.3c0.5,0.3,0.9,0.9,0.9,1.5c0,0.9,0.6,1.8,1.4,2.1c0.4,0.2,0.8,0.2,1.3,0.1
		c0.4-0.1,0.8-0.1,1.1-0.2C119.6,331.1,119.2,331.1,118.8,331z M142.7,337.5c-0.1-0.4-0.1-0.8-0.2-1.1c-0.1,0.4-0.1,0.8-0.2,1.1
		c0,0.3-0.1,0.7-0.3,1c-0.3,0.5-0.9,0.9-1.5,0.9c-0.9,0-1.8,0.6-2.2,1.4c-0.2,0.4-0.2,0.8-0.1,1.3c0.1,0.2,0.1,0.5,0.1,0.7h0.2
		c0-0.2,0.1-0.5,0.1-0.7c0-0.3,0.1-0.7,0.3-0.9c0.3-0.5,0.9-0.8,1.5-0.8c0.9,0,1.8-0.6,2.1-1.5C142.7,338.3,142.8,337.9,142.7,337.5
		L142.7,337.5z M152,276.7L152,276.7c-0.3,0.4-0.5,0.7-0.7,1.1c0.2-0.1,0.5-0.3,0.7-0.5C152,277.1,152,276.9,152,276.7z
		 M137.3,317.2c-0.3,0.2-0.6,0.4-0.9,0.4c-0.6,0.1-1.2-0.1-1.6-0.5c-0.7-0.7-1.7-0.8-2.6-0.4c-0.4,0.2-0.7,0.5-0.9,0.8
		c-0.2,0.3-0.4,0.6-0.6,1c0.3-0.2,0.6-0.4,1-0.6c0.3-0.2,0.6-0.4,0.9-0.5c0.6-0.2,1.2,0,1.6,0.4c0.7,0.7,1.6,0.9,2.5,0.5
		c0.4-0.2,0.8-0.4,1-0.8c0.2-0.3,0.4-0.6,0.6-1C137.9,316.8,137.6,317,137.3,317.2z"/>
	<path id="elsjds4g3sfl8" class="st5" d="M122.1,319.8c2.8-1.5,5.6-2.8,8.6-3.9c2.9-1.1,5.9-1.9,8.9-2.6c1.7-0.4,3.5-0.7,5.2-1
		 M144.8,312.3c-3,0.7-6.1,1.5-9,2.5c-2.9,1-5.9,2-8.8,3.1c-1.7,0.6-3.3,1.3-4.9,2c0,0-0.1,0-0.1-0.1c0,0,0-0.1,0.1-0.1L144.8,312.3
		z"/>
	<path id="eld42v8w5cobu" class="st5" d="M157.1,309.1c-0.3,0-15.9,3.5-16.4,3.7c0.1-0.2,3.6-8,4.1-9.1c0.1-0.1,0.1-0.2,0.1-0.3
		c0.3-0.5,0.7-1,1-1.5s0.8-1.3,1.2-2l0,0l-1.3,1.9c-0.2,0.3-0.4,0.6-0.6,0.9c0.4-0.8,0.7-1.6,1-2.4c0.5-1.3,1-2.6,1.5-3.9
		c0,0,0-0.1-0.1,0c-1,2.3-2.1,4.5-3.2,6.8s-5,10.6-5,10.6s17.3-4.2,17.6-4.3c0.1,0,0.1-0.1,0.1-0.2S157.2,309.1,157.1,309.1z"/>
	<path id="elmqvsml25xgp" class="st5" d="M156.2,328.6c-1.2-3.5-2.4-7-3.8-10.4c-0.8-2-1.5-3.9-2.3-5.9c0-0.1-0.2,0-0.1,0
		c1.1,3.5,2.2,7.1,3.4,10.6s2.5,7,3.8,10.4c0.7,2,1.5,3.9,2.4,5.8c1.3,2.9,0.1,0,0.1,0C158.7,335.6,157.4,332.2,156.2,328.6z"/>
	<path id="elfjhvqv8abfk" class="st5" d="M169.1,341c-0.5-1-1-2.4-1.5-3.3c-0.1-0.2-0.3-0.2-0.2,0c0.3,0.9,0.6,1.8,0.9,2.7
		c-0.8,0.1-1.6,0.1-2.4,0.2l-2.8,0.3c-1.8,0.2-3.6,0.4-5.4,0.5c-3.6,0.3-7.3,0.5-10.9,0.7c-7.3,0.3-14.7,0.3-22-0.1
		c-2-0.1-4.1-0.3-6.1-0.5s-4.3-0.5-6-0.9c0,0-0.1,0.1,0,0.1c1.7,0.5,3.4,0.9,5.2,1.2c1.8,0.3,3.7,0.5,5.5,0.7
		c3.7,0.3,7.4,0.5,11.1,0.5c7.3,0.1,14.7-0.2,22-0.7c2.1-0.1,4.1-0.3,6.1-0.5c1-0.1,2.1-0.2,3.1-0.3S169.2,341.1,169.1,341z"/>
	<rect id="el5sjxmn4lj6f" x="170.8" y="345.6" class="st21" width="71.3" height="3.2"/>
	<polygon id="elxon9agmywt" class="st18" points="242.1,345.6 242.1,348.8 193.6,348.8 196.1,345.6 	"/>
	<polygon id="elmtyar0mshfj" class="st18" points="203.4,348.8 265.8,348.8 274.8,304.8 212.4,304.8 	"/>
	<polygon id="elxkztqzx5jyi" class="st21" points="206.3,348.8 268.7,348.8 277.8,304.8 215.4,304.8 	"/>
	<path id="elz3wumzb1hhq" class="st19" d="M247.7,325.1c0.1,2-1.2,3.9-3.1,4.4c-1.8,0.4-3.3-1-3.4-3.1c-0.1-2,1.2-3.9,3.1-4.4
		C246.1,321.7,247.6,323.1,247.7,325.1z"/>
</g>
<g>
	<path class="st9" d="M240,178c-2.3,1.4-4.5,2.9-6.9,4.3c0.3,0.3,0.6,0.6,0.9,0.9c0.6,0.6,1.2,1.2,1.8,1.9c1.2,1.3,2.5,2.6,3.8,3.8
		c0.1,0.1,0.1,0.1,0,0.2c-0.7,0.7-1.4,1.4-2.1,2.2c-0.3,0.3-0.6,0.6-0.9,0.9c-0.1,0.1-0.1,0.1-0.2,0c-0.6-0.6-1.2-1.2-1.7-1.7
		c-1-1.1-2.1-2.1-3.2-3.2c-0.5-0.5-1.1-1-1.6-1.5c-1.4,2.2-2.8,4.5-4.2,6.9c-2.4-7.2-4.7-14.4-7.1-21.7
		C225.8,173.2,232.8,175.7,240,178z"/>
</g>
<g>
	<defs>
		<rect id="SVGID_1_" x="263.1" y="139.9" width="126.6" height="86.3"/>
	</defs>
	<clipPath id="SVGID_2_">
		<use xlink:href="#SVGID_1_"  style="overflow:visible;"/>
	</clipPath>
	<g class="st25">
		<defs>
			<rect id="SVGID_3_" x="263.1" y="139.9" width="126.6" height="86.3"/>
		</defs>
		<clipPath id="SVGID_4_">
			<use xlink:href="#SVGID_3_"  style="overflow:visible;"/>
		</clipPath>
		<use xlink:href="#SVGID_3_"  style="overflow:visible;fill:none;stroke:#C53F3F;stroke-width:0.5;stroke-miterlimit:10;"/>
	</g>
	<use xlink:href="#SVGID_1_"  style="overflow:visible;fill:none;stroke:#FFFFFF;stroke-width:0.25;stroke-miterlimit:10;"/>
</g>
</svg>
