<svg width="20" height="20" viewBox="0 0 20 20" fill="none" xmlns="http://www.w3.org/2000/svg">
<path d="M19.529 13.93C19.369 13.66 18.919 13.24 17.799 13.44C17.179 13.55 16.549 13.6 15.919 13.57C14.7954 13.519 13.6934 13.2432 12.6782 12.7588C11.6631 12.2745 10.7554 11.5914 10.009 10.75C8.70898 9.29999 7.90898 7.40999 7.89898 5.36999C7.89898 4.22999 8.11898 3.12999 8.56898 2.08999C9.00898 1.07999 8.69898 0.549994 8.47898 0.329994C8.24898 0.0999944 7.70898 -0.220006 6.64898 0.219994C2.55898 1.93999 0.0289758 6.03999 0.328976 10.43C0.628976 14.56 3.52898 18.09 7.36898 19.42C8.29993 19.7448 9.2738 19.9301 10.259 19.97C10.419 19.98 10.579 19.99 10.739 19.99C14.089 19.99 17.229 18.41 19.209 15.72C19.879 14.79 19.699 14.2 19.529 13.93Z" fill="#80868E"/>
</svg>
